<svg xmlns="http://www.w3.org/2000/svg" viewBox="0 0 1200 800"><defs><style>.cls-1{fill:#10162f;}.cls-2,.cls-3,.cls-4{fill:none;stroke:#fff;stroke-miterlimit:10;}.cls-3{stroke-dasharray:12.15 12.15;}.cls-4{stroke-dasharray:12.11 12.11;}.cls-5{fill:#fff;}.cls-6{fill:#66c4ff;}.cls-7{fill:#ffd300;}.cls-8{fill:#ff8c00;}</style></defs><g id="bg"><rect class="cls-1" x="-3.52" y="2.2" width="1200" height="800"/></g><g id="Layer_22" data-name="Layer 22"><rect class="cls-2" x="192.21" y="211.57" width="364.35" height="364.35"/><polyline class="cls-2" points="192.21 339.25 192.21 333.25 198.21 333.25"/><line class="cls-3" x1="210.36" y1="333.25" x2="544.49" y2="333.25"/><polyline class="cls-2" points="550.56 333.25 556.56 333.25 556.56 339.25"/><line class="cls-4" x1="556.56" y1="351.36" x2="556.56" y2="442.19"/><polyline class="cls-2" points="556.56 448.24 556.56 454.24 550.56 454.24"/><line class="cls-3" x1="538.41" y1="454.24" x2="204.28" y2="454.24"/><polyline class="cls-2" points="198.21 454.24 192.21 454.24 192.21 448.24"/><line class="cls-4" x1="192.21" y1="436.13" x2="192.21" y2="345.3"/><path class="cls-5" d="M325.25,598.32a.22.22,0,0,1,.23-.23h9.25a.21.21,0,0,1,.22.23v1.42a.21.21,0,0,1-.22.23H327.4c-.09,0-.14,0-.14.13v4.52a.13.13,0,0,0,.14.14h6.22a.22.22,0,0,1,.23.23v1.42a.22.22,0,0,1-.23.23H327.4c-.09,0-.14,0-.14.13v4.68a.13.13,0,0,0,.14.14h7.33a.21.21,0,0,1,.22.23v1.42a.21.21,0,0,1-.22.23h-9.25a.22.22,0,0,1-.23-.23Z"/><path class="cls-5" d="M340.29,613.47c-.15,0-.22-.09-.27-.23l-3.89-10.38c0-.14,0-.23.18-.23h1.56c.16,0,.23.07.3.23l2.8,7.78h0l2.73-7.78a.28.28,0,0,1,.28-.23h1.53c.16,0,.23.09.18.23l-3.86,10.38a.3.3,0,0,1-.3.23Z"/><path class="cls-5" d="M347.56,610.78a8.76,8.76,0,0,1-.36-2.74,8.63,8.63,0,0,1,.34-2.74,4.56,4.56,0,0,1,8.5,0,9.35,9.35,0,0,1,.34,3.1.22.22,0,0,1-.25.23h-6.85c-.09,0-.13,0-.13.13a3.85,3.85,0,0,0,.18,1.31,2.67,2.67,0,0,0,2.73,1.88,3.55,3.55,0,0,0,2.79-1.2.23.23,0,0,1,.34,0l.92.83a.2.2,0,0,1,0,.32,5.22,5.22,0,0,1-4.22,1.86A4.2,4.2,0,0,1,347.56,610.78Zm6.74-3.67c.09,0,.14,0,.14-.13a3.84,3.84,0,0,0-.16-1.22,2.67,2.67,0,0,0-5,0,3.57,3.57,0,0,0-.16,1.22c0,.09,0,.13.13.13Z"/><path class="cls-5" d="M366.2,613.47a.22.22,0,0,1-.23-.23v-6.33c0-1.74-.79-2.76-2.42-2.76a2.43,2.43,0,0,0-2.49,2.65v6.44a.21.21,0,0,1-.22.23h-1.45a.22.22,0,0,1-.23-.23V602.86a.22.22,0,0,1,.23-.23h1.45a.21.21,0,0,1,.22.23v1h0a3.41,3.41,0,0,1,3-1.47c2.36,0,3.76,1.6,3.76,4.07v6.78a.22.22,0,0,1-.23.23Z"/><path class="cls-5" d="M374.24,613.58c-2.1,0-2.91-1-2.91-3.08v-6.19a.13.13,0,0,0-.14-.14h-.9a.21.21,0,0,1-.23-.22v-1.09a.22.22,0,0,1,.23-.23h.9c.09,0,.14,0,.14-.13v-3a.21.21,0,0,1,.22-.23H373a.22.22,0,0,1,.23.23v3c0,.09,0,.13.13.13h1.72a.22.22,0,0,1,.23.23V604a.21.21,0,0,1-.23.22h-1.72c-.09,0-.13.05-.13.14v6.13c0,1.08.4,1.38,1.38,1.38h.47a.21.21,0,0,1,.23.22v1.31a.22.22,0,0,1-.23.23Z"/><path class="cls-5" d="M383.72,598.32a.21.21,0,0,1,.22-.23h5.18c2.6,0,4.32,1.11,5,3.28a23.92,23.92,0,0,1,0,8.82c-.7,2.17-2.42,3.28-5,3.28h-5.18a.21.21,0,0,1-.22-.23Zm2.14,13.27h2.83c1.85,0,3-.61,3.51-2.1a22.36,22.36,0,0,0,0-7.42c-.5-1.49-1.66-2.1-3.51-2.1h-2.83c-.09,0-.13,0-.13.13v11.35C385.73,611.54,385.77,611.59,385.86,611.59Z"/><path class="cls-5" d="M404.06,613.47a.22.22,0,0,1-.23-.23v-1h0a3.56,3.56,0,0,1-3.21,1.43c-2.06,0-3.65-1.07-3.65-3.26s1.59-3.35,4.23-3.35h2.47c.09,0,.13,0,.13-.13v-.8c0-1.49-.58-2.12-2.6-2.12a4.23,4.23,0,0,0-2.62.77.21.21,0,0,1-.32,0l-.61-1a.25.25,0,0,1,.05-.32,6,6,0,0,1,3.68-1.06c3.08,0,4.26,1,4.26,3.68v7.17a.22.22,0,0,1-.23.23Zm-.28-3.51v-1.2c0-.09,0-.13-.13-.13h-2.17c-1.88,0-2.69.54-2.69,1.76s.81,1.7,2.26,1.7C402.74,612.09,403.78,611.3,403.78,610Z"/><path class="cls-5" d="M412.1,613.58c-2.11,0-2.92-1-2.92-3.08v-6.19a.13.13,0,0,0-.14-.14h-.9a.21.21,0,0,1-.23-.22v-1.09a.22.22,0,0,1,.23-.23h.9c.09,0,.14,0,.14-.13v-3a.21.21,0,0,1,.22-.23h1.45a.22.22,0,0,1,.23.23v3c0,.09,0,.13.13.13h1.72a.22.22,0,0,1,.23.23V604a.21.21,0,0,1-.23.22h-1.72c-.09,0-.13.05-.13.14v6.13c0,1.08.4,1.38,1.38,1.38h.47a.21.21,0,0,1,.23.22v1.31a.22.22,0,0,1-.23.23Z"/><path class="cls-5" d="M415.41,610.78A8.43,8.43,0,0,1,415,608a8.63,8.63,0,0,1,.34-2.74,4.57,4.57,0,0,1,8.51,0,9.63,9.63,0,0,1,.34,3.1.22.22,0,0,1-.25.23h-6.85c-.1,0-.14,0-.14.13a4.12,4.12,0,0,0,.18,1.31,2.67,2.67,0,0,0,2.74,1.88,3.53,3.53,0,0,0,2.78-1.2.23.23,0,0,1,.34,0l.92.83a.2.2,0,0,1,0,.32,5.26,5.26,0,0,1-4.23,1.86A4.2,4.2,0,0,1,415.41,610.78Zm6.74-3.67c.09,0,.13,0,.13-.13a3.57,3.57,0,0,0-.16-1.22,2.67,2.67,0,0,0-5,0A3.57,3.57,0,0,0,417,607c0,.09,0,.13.14.13Z"/><path class="cls-5" d="M130.12,493.85a.22.22,0,0,1-.23-.23v-1.45a.37.37,0,0,1,.23-.38l11.53-7v-.09H130.12a.22.22,0,0,1-.23-.23v-1.43a.21.21,0,0,1,.23-.22H145a.21.21,0,0,1,.23.22v1.45a.39.39,0,0,1-.23.39l-11.49,7V492H145a.22.22,0,0,1,.23.23v1.42a.22.22,0,0,1-.23.23Z"/><path class="cls-5" d="M145.27,472.55a.22.22,0,0,1-.23.23h-1v0a3.3,3.3,0,0,1,1.49,3c0,2.37-1.63,3.75-4.1,3.75h-6.76a.21.21,0,0,1-.22-.22v-1.45a.21.21,0,0,1,.22-.23H141c1.77,0,2.78-.79,2.78-2.39a2.4,2.4,0,0,0-2.67-2.44h-6.42a.22.22,0,0,1-.22-.23V471.1a.21.21,0,0,1,.22-.22H145a.21.21,0,0,1,.23.22Z"/><path class="cls-5" d="M145.27,453.71a.22.22,0,0,1-.23.23h-6.33c-1.74,0-2.76.79-2.76,2.42a2.44,2.44,0,0,0,2.65,2.48H145a.22.22,0,0,1,.23.23v1.45a.21.21,0,0,1-.23.22h-6.33c-1.74,0-2.76.79-2.76,2.42a2.43,2.43,0,0,0,2.65,2.49H145a.22.22,0,0,1,.23.23v1.44a.22.22,0,0,1-.23.23H134.66a.21.21,0,0,1-.22-.23v-1.44a.21.21,0,0,1,.22-.23h1v0a3.84,3.84,0,0,1,.22-6.2v0a4,4,0,0,1-1.69-3.51c0-2.51,1.6-3.86,4.07-3.86H145a.21.21,0,0,1,.23.22Z"/><path class="cls-5" d="M145.27,448.54a.21.21,0,0,1-.23.22H130.12a.21.21,0,0,1-.23-.22v-1.45a.22.22,0,0,1,.23-.23h5.56v0a3.29,3.29,0,0,1-1.49-3.08,3.59,3.59,0,0,1,2.6-3.73,12.55,12.55,0,0,1,6.13,0,3.59,3.59,0,0,1,2.6,3.73,3.3,3.3,0,0,1-1.52,3.08v0h1a.22.22,0,0,1,.23.23Zm-3.17-6.7a7.48,7.48,0,0,0-2.26-.25,7.74,7.74,0,0,0-2.26.25,2.56,2.56,0,0,0,0,4.77,7.07,7.07,0,0,0,2.26.25,7,7,0,0,0,2.26-.25,2.55,2.55,0,0,0,0-4.77Z"/><path class="cls-5" d="M142.58,436.93a8.39,8.39,0,0,1-2.74.37,8.52,8.52,0,0,1-2.73-.34,4.56,4.56,0,0,1,0-8.51,9.56,9.56,0,0,1,3.09-.34.23.23,0,0,1,.23.25v6.86c0,.09,0,.13.14.13a4.21,4.21,0,0,0,1.31-.18,2.67,2.67,0,0,0,1.87-2.74,3.55,3.55,0,0,0-1.2-2.78.23.23,0,0,1,0-.34l.84-.92a.19.19,0,0,1,.31,0,5.26,5.26,0,0,1,1.86,4.23A4.18,4.18,0,0,1,142.58,436.93Zm-3.67-6.73c0-.09,0-.14-.13-.14a3.88,3.88,0,0,0-1.22.16,2.67,2.67,0,0,0,0,5,3.61,3.61,0,0,0,1.22.16c.09,0,.13,0,.13-.13Z"/><path class="cls-5" d="M145.27,425.11a.22.22,0,0,1-.23.23H134.66a.21.21,0,0,1-.22-.23v-1.45a.21.21,0,0,1,.22-.22h1.11v0a3,3,0,0,1-1.58-2.87,3.29,3.29,0,0,1,.81-2.21c.11-.12.21-.14.32-.05l1.11.84a.2.2,0,0,1,0,.31,3,3,0,0,0-.52,1.68c0,1.65,1.29,2.33,3.17,2.33H145a.21.21,0,0,1,.23.22Z"/><path class="cls-5" d="M142.6,410.93a8.08,8.08,0,0,1-2.76.37,8,8,0,0,1-2.73-.37,4.58,4.58,0,0,1,0-8.54,8,8,0,0,1,2.73-.36,8.12,8.12,0,0,1,2.76.36,4.58,4.58,0,0,1,0,8.54Zm-.54-6.71a7.15,7.15,0,0,0-2.22-.25,6.94,6.94,0,0,0-2.19.25,2.6,2.6,0,0,0,0,4.88,6.94,6.94,0,0,0,2.19.25,7.15,7.15,0,0,0,2.22-.25,2.61,2.61,0,0,0,0-4.88Z"/><path class="cls-5" d="M145.27,398.7a.22.22,0,0,1-.23.23h-8.93c-.09,0-.14,0-.14.13V400a.22.22,0,0,1-.22.23h-1.09a.22.22,0,0,1-.22-.23v-.93c0-.09-.05-.13-.14-.13h-.93c-2.55,0-3.48-1-3.48-3.31v-.83a.22.22,0,0,1,.23-.23h1.31a.21.21,0,0,1,.22.23v.59c0,1.38.3,1.65,1.63,1.65h1a.13.13,0,0,0,.14-.14v-2.1a.21.21,0,0,1,.22-.23h1.09a.21.21,0,0,1,.22.23v2.1a.13.13,0,0,0,.14.14H145a.21.21,0,0,1,.23.22Z"/><path class="cls-5" d="M130.12,382.65c-.14,0-.23-.12-.23-.27v-1.47a.3.3,0,0,1,.23-.3L145,375.34c.14,0,.23,0,.23.16v1.58a.28.28,0,0,1-.23.3l-3.34,1.17v6.22L145,386c.16.07.23.16.23.29v1.59c0,.13-.09.2-.23.15Zm9.72-3.44-7,2.42v.05l7,2.44Z"/><path class="cls-5" d="M145.38,370.16c0,2.1-.95,2.91-3.07,2.91h-6.2a.13.13,0,0,0-.14.14v.9a.21.21,0,0,1-.22.23h-1.09a.21.21,0,0,1-.22-.23v-.9a.13.13,0,0,0-.14-.14h-3.05a.21.21,0,0,1-.23-.22V371.4a.22.22,0,0,1,.23-.23h3.05c.09,0,.14,0,.14-.13v-1.72a.21.21,0,0,1,.22-.23h1.09a.21.21,0,0,1,.22.23V371c0,.09.05.13.14.13h6.13c1.08,0,1.38-.4,1.38-1.38v-.47a.21.21,0,0,1,.22-.23h1.32a.21.21,0,0,1,.22.23Z"/><path class="cls-5" d="M145.38,362.87c0,2.1-.95,2.91-3.07,2.91h-6.2a.13.13,0,0,0-.14.14v.9a.21.21,0,0,1-.22.23h-1.09a.21.21,0,0,1-.22-.23v-.9a.13.13,0,0,0-.14-.14h-3.05a.21.21,0,0,1-.23-.22v-1.45a.22.22,0,0,1,.23-.23h3.05c.09,0,.14,0,.14-.13V362a.21.21,0,0,1,.22-.23h1.09a.21.21,0,0,1,.22.23v1.72c0,.09.05.13.14.13h6.13c1.08,0,1.38-.4,1.38-1.38V362a.21.21,0,0,1,.22-.23h1.32a.21.21,0,0,1,.22.23Z"/><path class="cls-5" d="M142.58,359.55a8.39,8.39,0,0,1-2.74.37,8.52,8.52,0,0,1-2.73-.34,4.56,4.56,0,0,1,0-8.51,9.64,9.64,0,0,1,3.09-.33.22.22,0,0,1,.23.24v6.86c0,.09,0,.13.14.13a4.21,4.21,0,0,0,1.31-.18,2.67,2.67,0,0,0,1.87-2.74,3.55,3.55,0,0,0-1.2-2.78.23.23,0,0,1,0-.34l.84-.92a.19.19,0,0,1,.31,0,5.26,5.26,0,0,1,1.86,4.23A4.18,4.18,0,0,1,142.58,359.55Zm-3.67-6.73c0-.09,0-.14-.13-.14a3.88,3.88,0,0,0-1.22.16,2.67,2.67,0,0,0,0,5,3.61,3.61,0,0,0,1.22.16c.09,0,.13,0,.13-.13Z"/><path class="cls-5" d="M145.27,340.92a.22.22,0,0,1-.23.23h-6.33c-1.74,0-2.76.79-2.76,2.42a2.43,2.43,0,0,0,2.65,2.49H145a.21.21,0,0,1,.23.22v1.45a.22.22,0,0,1-.23.23H134.66a.21.21,0,0,1-.22-.23v-1.45a.21.21,0,0,1,.22-.22h1v0a3.42,3.42,0,0,1-1.47-3c0-2.35,1.6-3.75,4.07-3.75H145a.22.22,0,0,1,.23.23Z"/><path class="cls-5" d="M145.27,329.06a.21.21,0,0,1-.23.22h-1v0a3.3,3.3,0,0,1,1.52,3.08,3.57,3.57,0,0,1-2.6,3.73,12.24,12.24,0,0,1-6.13,0,3.57,3.57,0,0,1-2.6-3.73,3.29,3.29,0,0,1,1.49-3.08v0h-5.56a.21.21,0,0,1-.23-.22v-1.45a.22.22,0,0,1,.23-.23H145a.22.22,0,0,1,.23.23Zm-3.17.47a7,7,0,0,0-2.26-.25,7.07,7.07,0,0,0-2.26.25,2.56,2.56,0,0,0,0,4.77,7.74,7.74,0,0,0,2.26.25,7.48,7.48,0,0,0,2.26-.25,2.55,2.55,0,0,0,0-4.77Z"/><path class="cls-5" d="M142.58,324.21a8.43,8.43,0,0,1-2.74.36,8.24,8.24,0,0,1-2.73-.34,4.55,4.55,0,0,1,0-8.5,9.28,9.28,0,0,1,3.09-.34.22.22,0,0,1,.23.25v6.85a.12.12,0,0,0,.14.14,4.21,4.21,0,0,0,1.31-.18,2.68,2.68,0,0,0,1.87-2.74,3.53,3.53,0,0,0-1.2-2.78.23.23,0,0,1,0-.34l.84-.93a.2.2,0,0,1,.31,0,5.26,5.26,0,0,1,1.86,4.23A4.2,4.2,0,0,1,142.58,324.21Zm-3.67-6.74c0-.09,0-.13-.13-.13a3.91,3.91,0,0,0-1.22.15,2.67,2.67,0,0,0,0,5,3.88,3.88,0,0,0,1.22.16c.09,0,.13-.05.13-.14Z"/><path class="cls-5" d="M142.58,312.72a8.71,8.71,0,0,1-2.74.36,8.24,8.24,0,0,1-2.73-.34,4.55,4.55,0,0,1,0-8.5,9.28,9.28,0,0,1,3.09-.34.22.22,0,0,1,.23.25V311c0,.09,0,.13.14.13a3.93,3.93,0,0,0,1.31-.18,2.67,2.67,0,0,0,1.87-2.73,3.52,3.52,0,0,0-1.2-2.78c-.11-.12-.13-.23,0-.34l.84-.93a.2.2,0,0,1,.31,0,5.26,5.26,0,0,1,1.86,4.23A4.2,4.2,0,0,1,142.58,312.72ZM138.91,306c0-.09,0-.14-.13-.14a3.88,3.88,0,0,0-1.22.16,2.67,2.67,0,0,0,0,5,3.91,3.91,0,0,0,1.22.15c.09,0,.13,0,.13-.13Z"/><path class="cls-5" d="M143.89,301.69a.22.22,0,0,1-.32,0l-1-.93a.21.21,0,0,1,0-.31,5.29,5.29,0,0,0,1.24-3.35c0-1.58-.68-2.37-1.65-2.37s-1.33.4-1.51,2.1l-.12,1.15c-.22,2.13-1.29,3.24-3,3.24-2.06,0-3.3-1.47-3.3-4a6.45,6.45,0,0,1,1.2-3.84.2.2,0,0,1,.31-.05l1,.77a.22.22,0,0,1,0,.32,5.72,5.72,0,0,0-.88,2.91c0,1.36.61,2.06,1.49,2.06s1.31-.52,1.47-2.12l.11-1.13c.21-2.2,1.32-3.26,3.06-3.26,2.12,0,3.55,1.54,3.55,4.36A6.71,6.71,0,0,1,143.89,301.69Z"/><path class="cls-5" d="M303.78,184.92a.18.18,0,0,1,.19-.19h8.21a.18.18,0,0,1,.19.19v2a.17.17,0,0,1-.19.18h-5.52c-.07,0-.11,0-.11.12v2.54a.1.1,0,0,0,.11.11h4.6a.18.18,0,0,1,.19.19v2a.18.18,0,0,1-.19.19h-4.6a.1.1,0,0,0-.11.11V195a.1.1,0,0,0,.11.11h5.52a.18.18,0,0,1,.19.19v2a.18.18,0,0,1-.19.19H304a.18.18,0,0,1-.19-.19Z"/><path class="cls-5" d="M316.55,197.55a.23.23,0,0,1-.22-.19l-3.25-8.75c0-.11,0-.19.15-.19h2.38a.22.22,0,0,1,.24.19l1.77,5.41h0l1.7-5.41a.23.23,0,0,1,.24-.19h2.34c.13,0,.19.08.15.19l-3.24,8.75a.24.24,0,0,1-.23.19Z"/><path class="cls-5" d="M323.13,195.15a6.77,6.77,0,0,1-.32-2.17,6.87,6.87,0,0,1,.3-2.18,4.29,4.29,0,0,1,7.86,0,8.69,8.69,0,0,1,.3,2.81.18.18,0,0,1-.2.19h-5.53a.1.1,0,0,0-.11.11,2.4,2.4,0,0,0,.11.51,1.8,1.8,0,0,0,1.89,1.2,2.94,2.94,0,0,0,2.09-.81c.09-.07.19-.09.26,0L331,196a.18.18,0,0,1,0,.27,5.23,5.23,0,0,1-3.88,1.52A3.87,3.87,0,0,1,323.13,195.15Zm5.43-3.13a.1.1,0,0,0,.11-.11,2.55,2.55,0,0,0-.09-.68,1.66,1.66,0,0,0-3.05,0,2.17,2.17,0,0,0-.1.68.1.1,0,0,0,.11.11Z"/><path class="cls-5" d="M338.75,197.55a.18.18,0,0,1-.18-.19v-5.24c0-1-.47-1.66-1.42-1.66s-1.43.66-1.43,1.66v5.24a.18.18,0,0,1-.19.19h-2.26a.18.18,0,0,1-.19-.19v-8.75a.18.18,0,0,1,.19-.19h2.26a.18.18,0,0,1,.19.19v.64h0a2.81,2.81,0,0,1,2.36-1c2,0,3.1,1.39,3.1,3.39v5.75a.18.18,0,0,1-.18.19Z"/><path class="cls-5" d="M346.43,197.66c-2.11,0-2.9-.94-2.9-3v-4.14c0-.08,0-.11-.12-.11h-.56a.18.18,0,0,1-.19-.19v-1.57a.18.18,0,0,1,.19-.19h.56c.08,0,.12,0,.12-.11v-2.45a.18.18,0,0,1,.19-.19H346a.18.18,0,0,1,.19.19v2.45a.1.1,0,0,0,.11.11h1.17a.18.18,0,0,1,.19.19v1.57a.18.18,0,0,1-.19.19h-1.17a.1.1,0,0,0-.11.11v4c0,.68.22.91.83.91h.45a.18.18,0,0,1,.19.18v1.87a.18.18,0,0,1-.19.19Z"/><path class="cls-5" d="M357.51,184.92a.25.25,0,0,1,.24-.19h2.38a.24.24,0,0,1,.24.19l4.34,12.44c0,.11,0,.19-.13.19h-2.46a.23.23,0,0,1-.24-.19l-.73-2.25h-4.49l-.71,2.25a.24.24,0,0,1-.25.19h-2.47c-.13,0-.17-.08-.13-.19Zm2.88,7.84-1.45-4.49h-.06l-1.45,4.49Z"/><path class="cls-5" d="M369,197.66c-2.11,0-2.9-.94-2.9-3v-4.14a.1.1,0,0,0-.11-.11h-.57a.18.18,0,0,1-.18-.19v-1.57a.18.18,0,0,1,.18-.19h.57a.1.1,0,0,0,.11-.11v-2.45a.18.18,0,0,1,.19-.19h2.24a.18.18,0,0,1,.19.19v2.45a.1.1,0,0,0,.11.11H370a.18.18,0,0,1,.19.19v1.57a.18.18,0,0,1-.19.19h-1.17a.1.1,0,0,0-.11.11v4c0,.68.23.91.83.91H370a.17.17,0,0,1,.19.18v1.87a.18.18,0,0,1-.19.19Z"/><path class="cls-5" d="M375.24,197.66c-2.11,0-2.9-.94-2.9-3v-4.14c0-.08,0-.11-.12-.11h-.56a.18.18,0,0,1-.19-.19v-1.57a.18.18,0,0,1,.19-.19h.56c.08,0,.12,0,.12-.11v-2.45a.18.18,0,0,1,.19-.19h2.24a.18.18,0,0,1,.18.19v2.45c0,.08,0,.11.12.11h1.17a.18.18,0,0,1,.19.19v1.57a.18.18,0,0,1-.19.19h-1.17c-.08,0-.12,0-.12.11v4c0,.68.23.91.83.91h.46a.18.18,0,0,1,.19.18v1.87a.18.18,0,0,1-.19.19Z"/><path class="cls-5" d="M378,195.15a6.5,6.5,0,0,1-.32-2.17,6.59,6.59,0,0,1,.3-2.18,4.29,4.29,0,0,1,7.86,0,8.69,8.69,0,0,1,.3,2.81.18.18,0,0,1-.2.19h-5.52c-.08,0-.12,0-.12.11a1.91,1.91,0,0,0,.12.51,1.78,1.78,0,0,0,1.88,1.2,2.94,2.94,0,0,0,2.09-.81c.1-.07.19-.09.26,0l1.25,1.17a.18.18,0,0,1,0,.27,5.24,5.24,0,0,1-3.89,1.52A3.87,3.87,0,0,1,378,195.15Zm5.43-3.13c.08,0,.11,0,.11-.11a2.2,2.2,0,0,0-.09-.68,1.66,1.66,0,0,0-3,0,2.17,2.17,0,0,0-.1.68c0,.08,0,.11.12.11Z"/><path class="cls-5" d="M393.63,197.55a.18.18,0,0,1-.18-.19v-5.24c0-1-.48-1.66-1.42-1.66s-1.43.66-1.43,1.66v5.24a.18.18,0,0,1-.19.19h-2.26a.18.18,0,0,1-.19-.19v-8.75a.18.18,0,0,1,.19-.19h2.26a.18.18,0,0,1,.19.19v.64h0a2.8,2.8,0,0,1,2.35-1c2,0,3.11,1.39,3.11,3.39v5.75a.18.18,0,0,1-.18.19Z"/><path class="cls-5" d="M403.89,197.55a.18.18,0,0,1-.19-.19v-.66h0a2.73,2.73,0,0,1-2.4,1.05,3,3,0,0,1-3.09-2.18,8.23,8.23,0,0,1-.32-2.59,8.12,8.12,0,0,1,.32-2.58,3,3,0,0,1,3.09-2.18,2.73,2.73,0,0,1,2.4,1.05h0v-4.35a.18.18,0,0,1,.19-.19h2.26a.18.18,0,0,1,.19.19v12.44a.18.18,0,0,1-.19.19Zm-.36-3a7.29,7.29,0,0,0,0-3.13,1.32,1.32,0,0,0-1.39-1,1.34,1.34,0,0,0-1.41,1,7.29,7.29,0,0,0,0,3.13,1.36,1.36,0,0,0,1.41,1A1.34,1.34,0,0,0,403.53,194.55Z"/><path class="cls-5" d="M413.84,197.55a.18.18,0,0,1-.19-.19v-.61h0a3,3,0,0,1-2.51,1,2.72,2.72,0,0,1-3-2.79c0-2,1.53-2.94,3.79-2.94h1.62c.08,0,.11,0,.11-.11v-.34c0-.85-.41-1.24-1.86-1.24a3.42,3.42,0,0,0-2,.58.14.14,0,0,1-.24,0l-.85-1.48a.18.18,0,0,1,.06-.27,5.81,5.81,0,0,1,3.39-.9c3,0,4.05,1,4.05,3.29v5.85a.18.18,0,0,1-.19.19Zm-.23-3v-.62c0-.08,0-.11-.11-.11h-1.28c-1.11,0-1.62.32-1.62,1s.45,1,1.32,1C413.05,195.77,413.61,195.36,413.61,194.51Z"/><path class="cls-5" d="M424,197.55a.18.18,0,0,1-.19-.19v-5.24c0-1-.47-1.66-1.41-1.66s-1.43.66-1.43,1.66v5.24a.18.18,0,0,1-.19.19h-2.26a.18.18,0,0,1-.19-.19v-8.75a.18.18,0,0,1,.19-.19h2.26a.18.18,0,0,1,.19.19v.64h0a2.83,2.83,0,0,1,2.36-1c2,0,3.11,1.39,3.11,3.39v5.75a.18.18,0,0,1-.19.19Z"/><path class="cls-5" d="M428.45,195.17a8.38,8.38,0,0,1,0-4.37,3.79,3.79,0,0,1,3.93-2.58,4,4,0,0,1,3.45,1.71.18.18,0,0,1,0,.27l-1.63,1.07a.19.19,0,0,1-.29,0,1.62,1.62,0,0,0-1.45-.79,1.35,1.35,0,0,0-1.41,1,7.29,7.29,0,0,0,0,3.13,1.35,1.35,0,0,0,1.41,1,1.62,1.62,0,0,0,1.45-.79.19.19,0,0,1,.29,0l1.63,1.07a.18.18,0,0,1,0,.27,4,4,0,0,1-3.45,1.71A3.79,3.79,0,0,1,428.45,195.17Z"/><path class="cls-5" d="M437.35,195.15A6.5,6.5,0,0,1,437,193a6.59,6.59,0,0,1,.3-2.18,4.29,4.29,0,0,1,7.86,0,9,9,0,0,1,.3,2.81.19.19,0,0,1-.21.19h-5.52c-.08,0-.11,0-.11.11a1.59,1.59,0,0,0,.11.51,1.78,1.78,0,0,0,1.88,1.2,2.9,2.9,0,0,0,2.09-.81c.1-.07.19-.09.27,0l1.24,1.17a.17.17,0,0,1,0,.27,5.21,5.21,0,0,1-3.88,1.52A3.86,3.86,0,0,1,437.35,195.15Zm5.42-3.13c.08,0,.12,0,.12-.11a2.17,2.17,0,0,0-.1-.68,1.66,1.66,0,0,0-3.05,0,2.2,2.2,0,0,0-.09.68c0,.08,0,.11.11.11Z"/><path class="cls-5" d="M168.44,209.64h0l-1.36,1c-.07,0-.13,0-.13-.08v-.88a.2.2,0,0,1,.09-.17l1.4-1a.26.26,0,0,1,.19-.07h.72a.11.11,0,0,1,.12.12v7.91a.12.12,0,0,1-.12.12h-.77a.11.11,0,0,1-.11-.12Z"/><path class="cls-5" d="M172.15,214.81l.71-.18a.12.12,0,0,1,.16.09,1.25,1.25,0,0,0,1.33,1,1.19,1.19,0,0,0,1.2-.81,3.15,3.15,0,0,0,.11-1,2.87,2.87,0,0,0-.13-1,1.12,1.12,0,0,0-1.18-.79,1.21,1.21,0,0,0-1.2.76c0,.08-.06.12-.15.12h-.7a.11.11,0,0,1-.12-.12v-4.34a.11.11,0,0,1,.12-.12h4.1a.11.11,0,0,1,.12.12v.69a.12.12,0,0,1-.12.12h-3.21a.07.07,0,0,0-.08.07v2.29h0a1.72,1.72,0,0,1,1.34-.52,2,2,0,0,1,2,1.34,4.85,4.85,0,0,1,.18,1.42,4.07,4.07,0,0,1-.17,1.31,2.37,2.37,0,0,1-4.46-.26A.11.11,0,0,1,172.15,214.81Z"/><path class="cls-5" d="M178.24,212.44a9.64,9.64,0,0,1,.18-2.66,2.38,2.38,0,0,1,4.46,0,9.18,9.18,0,0,1,.18,2.66,9.28,9.28,0,0,1-.18,2.67,2.38,2.38,0,0,1-4.46,0A9.74,9.74,0,0,1,178.24,212.44Zm2.41,3.28a1.22,1.22,0,0,0,1.24-.82,23.25,23.25,0,0,0,0-4.91,1.22,1.22,0,0,0-1.24-.82,1.2,1.2,0,0,0-1.23.82,23.25,23.25,0,0,0,0,4.91A1.2,1.2,0,0,0,180.65,215.72Z"/><path class="cls-5" d="M172.15,457.87l.71-.18a.12.12,0,0,1,.16.09,1.25,1.25,0,0,0,1.33,1,1.19,1.19,0,0,0,1.2-.81,3.18,3.18,0,0,0,.11-1,2.84,2.84,0,0,0-.13-1,1.12,1.12,0,0,0-1.18-.79,1.21,1.21,0,0,0-1.2.76c0,.08-.06.12-.15.12h-.7a.11.11,0,0,1-.12-.12v-4.34a.11.11,0,0,1,.12-.12h4.1a.11.11,0,0,1,.12.12v.69a.12.12,0,0,1-.12.12h-3.21c-.05,0-.08,0-.08.07v2.29h0a1.72,1.72,0,0,1,1.34-.52,2,2,0,0,1,2,1.34,4.77,4.77,0,0,1,.18,1.41,4.1,4.1,0,0,1-.17,1.32,2.37,2.37,0,0,1-4.46-.26A.11.11,0,0,1,172.15,457.87Z"/><path class="cls-5" d="M178.24,455.5a9.57,9.57,0,0,1,.18-2.66,2.38,2.38,0,0,1,4.46,0,9.12,9.12,0,0,1,.18,2.66,9.28,9.28,0,0,1-.18,2.67,2.38,2.38,0,0,1-4.46,0A9.74,9.74,0,0,1,178.24,455.5Zm2.41,3.28a1.22,1.22,0,0,0,1.24-.82,23.34,23.34,0,0,0,0-4.92,1.21,1.21,0,0,0-1.24-.81,1.2,1.2,0,0,0-1.23.81,23.34,23.34,0,0,0,0,4.92A1.2,1.2,0,0,0,180.65,458.78Z"/><path class="cls-5" d="M178.24,571.84a9.64,9.64,0,0,1,.18-2.66,2.38,2.38,0,0,1,4.46,0,19.82,19.82,0,0,1,0,5.33,2.38,2.38,0,0,1-4.46,0A9.68,9.68,0,0,1,178.24,571.84Zm2.41,3.28a1.22,1.22,0,0,0,1.24-.82,23.25,23.25,0,0,0,0-4.91,1.22,1.22,0,0,0-1.24-.82,1.2,1.2,0,0,0-1.23.82,23.25,23.25,0,0,0,0,4.91A1.2,1.2,0,0,0,180.65,575.12Z"/><path class="cls-5" d="M168.22,330.37h0l-1.36.95c-.07,0-.13,0-.13-.08v-.88a.19.19,0,0,1,.08-.17l1.41-1a.25.25,0,0,1,.19-.07h.72a.11.11,0,0,1,.12.12v7.91a.12.12,0,0,1-.12.12h-.77a.12.12,0,0,1-.12-.12Z"/><path class="cls-5" d="M171.78,333.17a9.64,9.64,0,0,1,.18-2.66,2.38,2.38,0,0,1,4.46,0,9.18,9.18,0,0,1,.18,2.66,9.28,9.28,0,0,1-.18,2.67,2.38,2.38,0,0,1-4.46,0A9.74,9.74,0,0,1,171.78,333.17Zm2.41,3.28a1.22,1.22,0,0,0,1.24-.82,23.25,23.25,0,0,0,0-4.91,1.22,1.22,0,0,0-1.24-.82,1.2,1.2,0,0,0-1.23.82,23.25,23.25,0,0,0,0,4.91A1.2,1.2,0,0,0,174.19,336.45Z"/><path class="cls-5" d="M178.24,333.17a9.64,9.64,0,0,1,.18-2.66,2.38,2.38,0,0,1,4.46,0,9.18,9.18,0,0,1,.18,2.66,9.28,9.28,0,0,1-.18,2.67,2.38,2.38,0,0,1-4.46,0A9.74,9.74,0,0,1,178.24,333.17Zm2.41,3.28a1.22,1.22,0,0,0,1.24-.82,23.25,23.25,0,0,0,0-4.91,1.22,1.22,0,0,0-1.24-.82,1.2,1.2,0,0,0-1.23.82,23.25,23.25,0,0,0,0,4.91A1.2,1.2,0,0,0,180.65,336.45Z"/><path class="cls-5" d="M358.37,427.14a.22.22,0,0,1-.23-.23v-6.06L353.6,412a.17.17,0,0,1,.18-.25h1.6a.36.36,0,0,1,.34.23l3.44,6.58h0l3.42-6.58a.32.32,0,0,1,.32-.23h1.56c.18,0,.22.12.18.25l-4.55,8.84v6.06a.21.21,0,0,1-.22.23Z"/><path class="cls-5" d="M365.19,424.45a8.39,8.39,0,0,1-.36-2.74,8.24,8.24,0,0,1,.34-2.73,4.55,4.55,0,0,1,8.5,0,9.56,9.56,0,0,1,.34,3.09.22.22,0,0,1-.25.23h-6.85a.13.13,0,0,0-.14.14,4.17,4.17,0,0,0,.18,1.31,2.68,2.68,0,0,0,2.74,1.87,3.56,3.56,0,0,0,2.78-1.19.23.23,0,0,1,.34-.05l.93.84a.2.2,0,0,1,0,.31,5.26,5.26,0,0,1-4.23,1.86A4.19,4.19,0,0,1,365.19,424.45Zm6.74-3.67c.09,0,.13,0,.13-.13a3.61,3.61,0,0,0-.16-1.22,2.67,2.67,0,0,0-5,0,3.88,3.88,0,0,0-.16,1.22c0,.09.05.13.14.13Z"/><path class="cls-5" d="M383.34,427.14a.22.22,0,0,1-.23-.23v-1h0a3.54,3.54,0,0,1-3.21,1.43c-2.06,0-3.64-1.06-3.64-3.26s1.58-3.35,4.22-3.35h2.47c.09,0,.13,0,.13-.13v-.79c0-1.49-.58-2.13-2.6-2.13a4.21,4.21,0,0,0-2.62.77c-.11.09-.25.09-.31,0l-.62-1a.25.25,0,0,1,0-.32,6,6,0,0,1,3.69-1.06c3.07,0,4.25,1,4.25,3.68v7.17a.22.22,0,0,1-.23.23Zm-.28-3.51v-1.19c0-.09,0-.14-.13-.14h-2.17c-1.88,0-2.69.54-2.69,1.76s.81,1.7,2.26,1.7C382,425.76,383.06,425,383.06,423.63Z"/><path class="cls-5" d="M388.39,427.14a.21.21,0,0,1-.22-.23V416.53a.21.21,0,0,1,.22-.22h1.45a.21.21,0,0,1,.23.22v1.11h0a3,3,0,0,1,2.87-1.58,3.37,3.37,0,0,1,2.22.81c.11.12.13.21,0,.32l-.83,1.11a.21.21,0,0,1-.32,0,3.11,3.11,0,0,0-1.67-.52c-1.65,0-2.33,1.29-2.33,3.17v5.92a.22.22,0,0,1-.23.23Z"/><rect class="cls-6" x="348.56" y="327.59" width="51.66" height="248.33"/><rect class="cls-7" x="245.24" y="333.82" width="51.66" height="242.1"/><rect class="cls-8" x="451.88" y="316.34" width="51.66" height="259.58"/><polygon class="cls-2" points="691.77 211.57 1056.12 211.57 1056.12 575.92 691.77 575.92 691.77 540.07 701.77 527.29 691.77 514.5 701.77 501.72 691.77 488.94 691.77 211.57"/><polyline class="cls-2" points="691.77 339.25 691.77 333.25 697.77 333.25"/><line class="cls-3" x1="709.92" y1="333.25" x2="1044.04" y2="333.25"/><polyline class="cls-2" points="1050.12 333.25 1056.12 333.25 1056.12 339.25"/><line class="cls-4" x1="1056.12" y1="351.36" x2="1056.12" y2="442.19"/><polyline class="cls-2" points="1056.12 448.24 1056.12 454.24 1050.12 454.24"/><line class="cls-3" x1="1037.97" y1="454.24" x2="703.84" y2="454.24"/><polyline class="cls-2" points="697.77 454.24 691.77 454.24 691.77 448.24"/><line class="cls-4" x1="691.77" y1="436.13" x2="691.77" y2="345.3"/><path class="cls-5" d="M824.81,598.32a.21.21,0,0,1,.22-.23h9.25a.22.22,0,0,1,.23.23v1.42a.22.22,0,0,1-.23.23H827c-.09,0-.14,0-.14.13v4.52a.13.13,0,0,0,.14.14h6.22a.21.21,0,0,1,.22.23v1.42a.21.21,0,0,1-.22.23H827c-.09,0-.14,0-.14.13v4.68a.13.13,0,0,0,.14.14h7.32a.22.22,0,0,1,.23.23v1.42a.22.22,0,0,1-.23.23H825a.21.21,0,0,1-.22-.23Z"/><path class="cls-5" d="M839.85,613.47c-.16,0-.23-.09-.27-.23l-3.89-10.38c0-.14,0-.23.18-.23h1.56c.16,0,.23.07.3.23l2.8,7.78h.05l2.73-7.78c.05-.16.14-.23.27-.23h1.54c.16,0,.23.09.18.23l-3.86,10.38a.3.3,0,0,1-.3.23Z"/><path class="cls-5" d="M847.12,610.78a8.76,8.76,0,0,1-.36-2.74,8.35,8.35,0,0,1,.34-2.74,4.56,4.56,0,0,1,8.5,0,9.35,9.35,0,0,1,.34,3.1.22.22,0,0,1-.25.23h-6.85c-.09,0-.14,0-.14.13a3.82,3.82,0,0,0,.19,1.31,2.67,2.67,0,0,0,2.73,1.88,3.52,3.52,0,0,0,2.78-1.2c.12-.11.23-.13.34,0l.93.83a.21.21,0,0,1,0,.32,5.26,5.26,0,0,1-4.23,1.86A4.2,4.2,0,0,1,847.12,610.78Zm6.74-3.67c.09,0,.14,0,.14-.13a3.84,3.84,0,0,0-.16-1.22,2.67,2.67,0,0,0-5,0,3.84,3.84,0,0,0-.16,1.22c0,.09,0,.13.14.13Z"/><path class="cls-5" d="M865.75,613.47a.21.21,0,0,1-.22-.23v-6.33c0-1.74-.79-2.76-2.42-2.76a2.43,2.43,0,0,0-2.49,2.65v6.44a.22.22,0,0,1-.23.23H859a.22.22,0,0,1-.23-.23V602.86a.22.22,0,0,1,.23-.23h1.44a.22.22,0,0,1,.23.23v1h0a3.42,3.42,0,0,1,3-1.47c2.36,0,3.76,1.6,3.76,4.07v6.78a.22.22,0,0,1-.23.23Z"/><path class="cls-5" d="M873.8,613.58c-2.1,0-2.92-1-2.92-3.08v-6.19c0-.09,0-.14-.13-.14h-.91a.21.21,0,0,1-.22-.22v-1.09a.21.21,0,0,1,.22-.23h.91c.09,0,.13,0,.13-.13v-3a.22.22,0,0,1,.23-.23h1.45a.21.21,0,0,1,.22.23v3c0,.09.05.13.14.13h1.72a.21.21,0,0,1,.22.23V604a.21.21,0,0,1-.22.22h-1.72a.13.13,0,0,0-.14.14v6.13c0,1.08.41,1.38,1.38,1.38h.48a.21.21,0,0,1,.22.22v1.31a.21.21,0,0,1-.22.23Z"/><path class="cls-5" d="M883.27,598.32a.22.22,0,0,1,.23-.23h5.18c2.6,0,4.32,1.11,5,3.28a23.92,23.92,0,0,1,0,8.82c-.7,2.17-2.42,3.28-5,3.28H883.5a.22.22,0,0,1-.23-.23Zm2.15,13.27h2.83c1.85,0,3-.61,3.5-2.1a21.67,21.67,0,0,0,0-7.42c-.49-1.49-1.65-2.1-3.5-2.1h-2.83c-.09,0-.13,0-.13.13v11.35C885.29,611.54,885.33,611.59,885.42,611.59Z"/><path class="cls-5" d="M903.61,613.47a.21.21,0,0,1-.22-.23v-1h0a3.55,3.55,0,0,1-3.21,1.43c-2,0-3.64-1.07-3.64-3.26s1.59-3.35,4.23-3.35h2.47c.09,0,.13,0,.13-.13v-.8c0-1.49-.59-2.12-2.6-2.12a4.21,4.21,0,0,0-2.62.77.21.21,0,0,1-.32,0l-.61-1a.24.24,0,0,1,0-.32,6,6,0,0,1,3.68-1.06c3.08,0,4.25,1,4.25,3.68v7.17a.21.21,0,0,1-.22.23Zm-.27-3.51v-1.2c0-.09,0-.13-.13-.13H901c-1.87,0-2.68.54-2.68,1.76s.81,1.7,2.26,1.7C902.3,612.09,903.34,611.3,903.34,610Z"/><path class="cls-5" d="M911.65,613.58c-2.1,0-2.91-1-2.91-3.08v-6.19a.13.13,0,0,0-.14-.14h-.9a.21.21,0,0,1-.23-.22v-1.09a.22.22,0,0,1,.23-.23h.9c.09,0,.14,0,.14-.13v-3a.21.21,0,0,1,.22-.23h1.45a.21.21,0,0,1,.22.23v3c0,.09,0,.13.14.13h1.72a.22.22,0,0,1,.23.23V604a.22.22,0,0,1-.23.22h-1.72a.13.13,0,0,0-.14.14v6.13c0,1.08.41,1.38,1.39,1.38h.47a.22.22,0,0,1,.23.22v1.31a.22.22,0,0,1-.23.23Z"/><path class="cls-5" d="M915,610.78a8.76,8.76,0,0,1-.36-2.74,8.63,8.63,0,0,1,.34-2.74,4.57,4.57,0,0,1,8.51,0,9.71,9.71,0,0,1,.33,3.1.22.22,0,0,1-.25.23h-6.85c-.09,0-.13,0-.13.13a3.85,3.85,0,0,0,.18,1.31,2.67,2.67,0,0,0,2.73,1.88,3.55,3.55,0,0,0,2.79-1.2.23.23,0,0,1,.34,0l.92.83a.2.2,0,0,1,0,.32,5.22,5.22,0,0,1-4.22,1.86A4.2,4.2,0,0,1,915,610.78Zm6.74-3.67c.09,0,.14,0,.14-.13a3.84,3.84,0,0,0-.16-1.22,2.67,2.67,0,0,0-5,0,3.57,3.57,0,0,0-.16,1.22c0,.09,0,.13.13.13Z"/><path class="cls-5" d="M629.67,493.85a.21.21,0,0,1-.22-.23v-1.45a.36.36,0,0,1,.22-.38l11.54-7v-.09H629.67a.22.22,0,0,1-.22-.23v-1.43a.21.21,0,0,1,.22-.22H644.6a.21.21,0,0,1,.23.22v1.45a.39.39,0,0,1-.23.39l-11.49,7V492H644.6a.22.22,0,0,1,.23.23v1.42a.22.22,0,0,1-.23.23Z"/><path class="cls-5" d="M644.83,472.55a.22.22,0,0,1-.23.23h-1v0a3.28,3.28,0,0,1,1.49,3c0,2.37-1.62,3.75-4.09,3.75h-6.76a.21.21,0,0,1-.23-.22v-1.45a.22.22,0,0,1,.23-.23h6.31c1.76,0,2.78-.79,2.78-2.39a2.4,2.4,0,0,0-2.67-2.44h-6.42a.22.22,0,0,1-.23-.23V471.1a.21.21,0,0,1,.23-.22H644.6a.21.21,0,0,1,.23.22Z"/><path class="cls-5" d="M644.83,453.71a.22.22,0,0,1-.23.23h-6.33c-1.74,0-2.76.79-2.76,2.42a2.44,2.44,0,0,0,2.64,2.48h6.45a.22.22,0,0,1,.23.23v1.45a.21.21,0,0,1-.23.22h-6.33c-1.74,0-2.76.79-2.76,2.42a2.43,2.43,0,0,0,2.64,2.49h6.45a.22.22,0,0,1,.23.23v1.44a.22.22,0,0,1-.23.23H634.22a.22.22,0,0,1-.23-.23v-1.44a.22.22,0,0,1,.23-.23h1v0a3.83,3.83,0,0,1,.23-6.2v0a4.05,4.05,0,0,1-1.7-3.51c0-2.51,1.61-3.86,4.08-3.86h6.78a.21.21,0,0,1,.23.22Z"/><path class="cls-5" d="M644.83,448.54a.21.21,0,0,1-.23.22H629.67a.21.21,0,0,1-.22-.22v-1.45a.21.21,0,0,1,.22-.23h5.57v0a3.29,3.29,0,0,1-1.5-3.08,3.59,3.59,0,0,1,2.61-3.73,12.51,12.51,0,0,1,6.12,0,3.59,3.59,0,0,1,2.6,3.73,3.3,3.3,0,0,1-1.51,3.08v0h1a.22.22,0,0,1,.23.23Zm-3.17-6.7a7.57,7.57,0,0,0-2.26-.25,7.74,7.74,0,0,0-2.26.25,2.56,2.56,0,0,0,0,4.77,10.34,10.34,0,0,0,4.52,0,2.55,2.55,0,0,0,0-4.77Z"/><path class="cls-5" d="M642.13,436.93a8.32,8.32,0,0,1-2.73.37,8.59,8.59,0,0,1-2.74-.34,4.56,4.56,0,0,1,0-8.51,9.63,9.63,0,0,1,3.1-.34.23.23,0,0,1,.23.25v6.86c0,.09,0,.13.13.13a4.12,4.12,0,0,0,1.31-.18,2.67,2.67,0,0,0,1.88-2.74,3.55,3.55,0,0,0-1.2-2.78.23.23,0,0,1,0-.34l.83-.92a.2.2,0,0,1,.32,0,5.25,5.25,0,0,1,1.85,4.23A4.17,4.17,0,0,1,642.13,436.93Zm-3.66-6.73c0-.09,0-.14-.13-.14a4,4,0,0,0-1.23.16,2.67,2.67,0,0,0,0,5,3.67,3.67,0,0,0,1.23.16c.09,0,.13,0,.13-.13Z"/><path class="cls-5" d="M644.83,425.11a.22.22,0,0,1-.23.23H634.22a.22.22,0,0,1-.23-.23v-1.45a.21.21,0,0,1,.23-.22h1.11v0a3,3,0,0,1-1.59-2.87,3.3,3.3,0,0,1,.82-2.21c.11-.12.2-.14.32-.05l1.1.84a.2.2,0,0,1,0,.31,3,3,0,0,0-.52,1.68c0,1.65,1.29,2.33,3.16,2.33h5.93a.21.21,0,0,1,.23.22Z"/><path class="cls-5" d="M642.16,410.93a8.12,8.12,0,0,1-2.76.37,8,8,0,0,1-2.74-.37,4.58,4.58,0,0,1,0-8.54,8.07,8.07,0,0,1,2.74-.36,8.15,8.15,0,0,1,2.76.36,4.59,4.59,0,0,1,0,8.54Zm-.55-6.71a9.85,9.85,0,0,0-4.41,0,2.61,2.61,0,0,0,0,4.88,9.85,9.85,0,0,0,4.41,0,2.6,2.6,0,0,0,0-4.88Z"/><path class="cls-5" d="M644.83,398.7a.22.22,0,0,1-.23.23h-8.93c-.09,0-.14,0-.14.13V400a.22.22,0,0,1-.22.23h-1.09A.22.22,0,0,1,634,400v-.93c0-.09,0-.13-.13-.13h-.93c-2.55,0-3.48-1-3.48-3.31v-.83a.21.21,0,0,1,.22-.23H631a.21.21,0,0,1,.22.23v.59c0,1.38.3,1.65,1.63,1.65h1c.09,0,.13,0,.13-.14v-2.1a.22.22,0,0,1,.23-.23h1.09a.21.21,0,0,1,.22.23v2.1a.13.13,0,0,0,.14.14h8.93a.21.21,0,0,1,.23.22Z"/><path class="cls-5" d="M629.67,382.65c-.13,0-.22-.12-.22-.27v-1.47a.3.3,0,0,1,.22-.3l14.93-5.27c.14,0,.23,0,.23.16v1.58a.28.28,0,0,1-.23.3l-3.35,1.17v6.22L644.6,386c.16.07.23.16.23.29v1.59c0,.13-.09.2-.23.15Zm9.73-3.44-7,2.42v.05l7,2.44Z"/><path class="cls-5" d="M644.94,370.16c0,2.1-1,2.91-3.08,2.91h-6.19a.13.13,0,0,0-.14.14v.9a.21.21,0,0,1-.22.23h-1.09a.22.22,0,0,1-.23-.23v-.9c0-.09,0-.14-.13-.14h-3.05a.21.21,0,0,1-.23-.22V371.4a.22.22,0,0,1,.23-.23h3.05c.09,0,.13,0,.13-.13v-1.72a.22.22,0,0,1,.23-.23h1.09a.21.21,0,0,1,.22.23V371c0,.09.05.13.14.13h6.13c1.08,0,1.37-.4,1.37-1.38v-.47a.22.22,0,0,1,.23-.23h1.31a.22.22,0,0,1,.23.23Z"/><path class="cls-5" d="M644.94,362.87c0,2.1-1,2.91-3.08,2.91h-6.19a.13.13,0,0,0-.14.14v.9a.21.21,0,0,1-.22.23h-1.09a.22.22,0,0,1-.23-.23v-.9c0-.09,0-.14-.13-.14h-3.05a.21.21,0,0,1-.23-.22v-1.45a.22.22,0,0,1,.23-.23h3.05c.09,0,.13,0,.13-.13V362a.22.22,0,0,1,.23-.23h1.09a.21.21,0,0,1,.22.23v1.72c0,.09.05.13.14.13h6.13c1.08,0,1.37-.4,1.37-1.38V362a.22.22,0,0,1,.23-.23h1.31a.22.22,0,0,1,.23.23Z"/><path class="cls-5" d="M642.13,359.55a8.32,8.32,0,0,1-2.73.37,8.59,8.59,0,0,1-2.74-.34,4.56,4.56,0,0,1,0-8.51,9.71,9.71,0,0,1,3.1-.33.22.22,0,0,1,.23.24v6.86c0,.09,0,.13.13.13a4.12,4.12,0,0,0,1.31-.18,2.67,2.67,0,0,0,1.88-2.74,3.55,3.55,0,0,0-1.2-2.78.23.23,0,0,1,0-.34l.83-.92a.2.2,0,0,1,.32,0,5.25,5.25,0,0,1,1.85,4.23A4.17,4.17,0,0,1,642.13,359.55Zm-3.66-6.73c0-.09,0-.14-.13-.14a4,4,0,0,0-1.23.16,2.67,2.67,0,0,0,0,5,3.67,3.67,0,0,0,1.23.16c.09,0,.13,0,.13-.13Z"/><path class="cls-5" d="M644.83,340.92a.22.22,0,0,1-.23.23h-6.33c-1.74,0-2.76.79-2.76,2.42a2.43,2.43,0,0,0,2.64,2.49h6.45a.21.21,0,0,1,.23.22v1.45a.22.22,0,0,1-.23.23H634.22a.22.22,0,0,1-.23-.23v-1.45a.21.21,0,0,1,.23-.22h1v0a3.44,3.44,0,0,1-1.47-3c0-2.35,1.61-3.75,4.08-3.75h6.78a.22.22,0,0,1,.23.23Z"/><path class="cls-5" d="M644.83,329.06a.21.21,0,0,1-.23.22h-1v0a3.3,3.3,0,0,1,1.51,3.08,3.57,3.57,0,0,1-2.6,3.73,12.2,12.2,0,0,1-6.12,0,3.58,3.58,0,0,1-2.61-3.73,3.29,3.29,0,0,1,1.5-3.08v0h-5.57a.21.21,0,0,1-.22-.22v-1.45a.21.21,0,0,1,.22-.23H644.6a.22.22,0,0,1,.23.23Zm-3.17.47a10.34,10.34,0,0,0-4.52,0,2.56,2.56,0,0,0,0,4.77,7.74,7.74,0,0,0,2.26.25,7.57,7.57,0,0,0,2.26-.25,2.55,2.55,0,0,0,0-4.77Z"/><path class="cls-5" d="M642.13,324.21a10.86,10.86,0,0,1-5.47,0,4.55,4.55,0,0,1,0-8.5,9.35,9.35,0,0,1,3.1-.34.22.22,0,0,1,.23.25v6.85c0,.09,0,.14.13.14a4.12,4.12,0,0,0,1.31-.18,2.68,2.68,0,0,0,1.88-2.74,3.53,3.53,0,0,0-1.2-2.78.23.23,0,0,1,0-.34l.83-.93a.21.21,0,0,1,.32,0,5.25,5.25,0,0,1,1.85,4.23A4.19,4.19,0,0,1,642.13,324.21Zm-3.66-6.74c0-.09,0-.13-.13-.13a4,4,0,0,0-1.23.15,2.68,2.68,0,0,0,0,5,4,4,0,0,0,1.23.16c.09,0,.13-.05.13-.14Z"/><path class="cls-5" d="M642.13,312.72a8.64,8.64,0,0,1-2.73.36,8.31,8.31,0,0,1-2.74-.34,4.55,4.55,0,0,1,0-8.5,9.35,9.35,0,0,1,3.1-.34.22.22,0,0,1,.23.25V311c0,.09,0,.13.13.13a3.85,3.85,0,0,0,1.31-.18,2.67,2.67,0,0,0,1.88-2.73,3.52,3.52,0,0,0-1.2-2.78c-.11-.12-.13-.23,0-.34l.83-.93a.21.21,0,0,1,.32,0,5.25,5.25,0,0,1,1.85,4.23A4.19,4.19,0,0,1,642.13,312.72ZM638.47,306c0-.09,0-.14-.13-.14a4,4,0,0,0-1.23.16,2.68,2.68,0,0,0,0,5,4,4,0,0,0,1.23.15c.09,0,.13,0,.13-.13Z"/><path class="cls-5" d="M643.45,301.69a.22.22,0,0,1-.32,0l-1-.93a.21.21,0,0,1,0-.31,5.24,5.24,0,0,0,1.25-3.35c0-1.58-.68-2.37-1.65-2.37s-1.34.4-1.52,2.1L640.1,298c-.23,2.13-1.29,3.24-3.05,3.24-2.06,0-3.31-1.47-3.31-4a6.52,6.52,0,0,1,1.2-3.84.22.22,0,0,1,.32-.05l1,.77a.22.22,0,0,1,0,.32,5.72,5.72,0,0,0-.88,2.91c0,1.36.61,2.06,1.49,2.06s1.31-.52,1.47-2.12l.11-1.13c.2-2.2,1.31-3.26,3-3.26,2.13,0,3.55,1.54,3.55,4.36A6.76,6.76,0,0,1,643.45,301.69Z"/><path class="cls-5" d="M803.34,184.92a.18.18,0,0,1,.19-.19h8.21a.18.18,0,0,1,.19.19v2a.18.18,0,0,1-.19.18h-5.52c-.08,0-.11,0-.11.12v2.54c0,.08,0,.11.11.11h4.6a.18.18,0,0,1,.19.19v2a.18.18,0,0,1-.19.19h-4.6a.1.1,0,0,0-.11.11V195a.1.1,0,0,0,.11.11h5.52a.18.18,0,0,1,.19.19v2a.18.18,0,0,1-.19.19h-8.21a.18.18,0,0,1-.19-.19Z"/><path class="cls-5" d="M816.11,197.55a.25.25,0,0,1-.23-.19l-3.24-8.75c0-.11,0-.19.15-.19h2.38a.23.23,0,0,1,.24.19l1.77,5.41h0l1.7-5.41a.22.22,0,0,1,.24-.19h2.34c.13,0,.19.08.15.19l-3.24,8.75a.25.25,0,0,1-.23.19Z"/><path class="cls-5" d="M822.69,195.15a6.5,6.5,0,0,1-.32-2.17,6.59,6.59,0,0,1,.3-2.18,4.29,4.29,0,0,1,7.86,0,8.69,8.69,0,0,1,.3,2.81.18.18,0,0,1-.21.19H825.1a.1.1,0,0,0-.11.11,2.4,2.4,0,0,0,.11.51,1.79,1.79,0,0,0,1.89,1.2,2.94,2.94,0,0,0,2.09-.81c.09-.07.19-.09.26,0l1.25,1.17a.18.18,0,0,1,0,.27,5.24,5.24,0,0,1-3.89,1.52A3.87,3.87,0,0,1,822.69,195.15Zm5.43-3.13a.1.1,0,0,0,.11-.11,2.55,2.55,0,0,0-.09-.68,1.67,1.67,0,0,0-3.06,0,2.55,2.55,0,0,0-.09.68.1.1,0,0,0,.11.11Z"/><path class="cls-5" d="M838.31,197.55a.18.18,0,0,1-.19-.19v-5.24c0-1-.47-1.66-1.41-1.66s-1.43.66-1.43,1.66v5.24a.18.18,0,0,1-.19.19h-2.26a.18.18,0,0,1-.19-.19v-8.75a.18.18,0,0,1,.19-.19h2.26a.18.18,0,0,1,.19.19v.64h0a2.79,2.79,0,0,1,2.35-1c2,0,3.11,1.39,3.11,3.39v5.75a.18.18,0,0,1-.19.19Z"/><path class="cls-5" d="M846,197.66c-2.11,0-2.9-.94-2.9-3v-4.14c0-.08,0-.11-.12-.11h-.56a.18.18,0,0,1-.19-.19v-1.57a.18.18,0,0,1,.19-.19H843c.08,0,.12,0,.12-.11v-2.45a.18.18,0,0,1,.18-.19h2.25a.18.18,0,0,1,.18.19v2.45c0,.08,0,.11.12.11H847a.18.18,0,0,1,.18.19v1.57a.18.18,0,0,1-.18.19h-1.17c-.08,0-.12,0-.12.11v4c0,.68.23.91.83.91H847a.17.17,0,0,1,.18.18v1.87a.18.18,0,0,1-.18.19Z"/><path class="cls-5" d="M857.07,184.92a.24.24,0,0,1,.24-.19h2.38a.25.25,0,0,1,.24.19l4.34,12.44c0,.11,0,.19-.14.19h-2.45a.23.23,0,0,1-.24-.19l-.74-2.25h-4.48l-.72,2.25a.23.23,0,0,1-.24.19h-2.47c-.13,0-.17-.08-.13-.19Zm2.88,7.84-1.45-4.49h-.06L857,192.76Z"/><path class="cls-5" d="M868.51,197.66c-2.11,0-2.9-.94-2.9-3v-4.14a.1.1,0,0,0-.11-.11h-.57a.18.18,0,0,1-.19-.19v-1.57a.18.18,0,0,1,.19-.19h.57a.1.1,0,0,0,.11-.11v-2.45a.18.18,0,0,1,.19-.19H868a.18.18,0,0,1,.19.19v2.45a.1.1,0,0,0,.11.11h1.17a.18.18,0,0,1,.19.19v1.57a.18.18,0,0,1-.19.19h-1.17a.1.1,0,0,0-.11.11v4c0,.68.22.91.83.91h.45a.18.18,0,0,1,.19.18v1.87a.18.18,0,0,1-.19.19Z"/><path class="cls-5" d="M874.79,197.66c-2.1,0-2.9-.94-2.9-3v-4.14c0-.08,0-.11-.11-.11h-.57a.18.18,0,0,1-.18-.19v-1.57a.18.18,0,0,1,.18-.19h.57c.08,0,.11,0,.11-.11v-2.45a.18.18,0,0,1,.19-.19h2.24a.18.18,0,0,1,.19.19v2.45c0,.08,0,.11.12.11h1.16a.18.18,0,0,1,.19.19v1.57a.18.18,0,0,1-.19.19h-1.16c-.08,0-.12,0-.12.11v4c0,.68.23.91.83.91h.45a.17.17,0,0,1,.19.18v1.87a.18.18,0,0,1-.19.19Z"/><path class="cls-5" d="M877.57,195.15a6.5,6.5,0,0,1-.32-2.17,6.59,6.59,0,0,1,.3-2.18,4.29,4.29,0,0,1,7.86,0,8.69,8.69,0,0,1,.3,2.81.18.18,0,0,1-.21.19H880a.1.1,0,0,0-.11.11,2.4,2.4,0,0,0,.11.51,1.79,1.79,0,0,0,1.89,1.2,2.94,2.94,0,0,0,2.09-.81c.09-.07.19-.09.26,0l1.25,1.17a.18.18,0,0,1,0,.27,5.2,5.2,0,0,1-3.88,1.52A3.87,3.87,0,0,1,877.57,195.15ZM883,192a.1.1,0,0,0,.11-.11,2.55,2.55,0,0,0-.09-.68,1.67,1.67,0,0,0-3.06,0,2.55,2.55,0,0,0-.09.68.1.1,0,0,0,.11.11Z"/><path class="cls-5" d="M893.19,197.55a.18.18,0,0,1-.19-.19v-5.24c0-1-.47-1.66-1.41-1.66s-1.43.66-1.43,1.66v5.24a.18.18,0,0,1-.19.19h-2.26a.18.18,0,0,1-.19-.19v-8.75a.18.18,0,0,1,.19-.19H890a.18.18,0,0,1,.19.19v.64h0a2.79,2.79,0,0,1,2.35-1c2,0,3.11,1.39,3.11,3.39v5.75a.18.18,0,0,1-.19.19Z"/><path class="cls-5" d="M903.45,197.55a.18.18,0,0,1-.19-.19v-.66h0a2.7,2.7,0,0,1-2.39,1.05,3,3,0,0,1-3.09-2.18,8,8,0,0,1-.32-2.59,7.84,7.84,0,0,1,.32-2.58,3,3,0,0,1,3.09-2.18,2.7,2.7,0,0,1,2.39,1.05h0v-4.35a.18.18,0,0,1,.19-.19h2.26a.18.18,0,0,1,.19.19v12.44a.18.18,0,0,1-.19.19Zm-.36-3a7.29,7.29,0,0,0,0-3.13,1.33,1.33,0,0,0-1.39-1,1.35,1.35,0,0,0-1.42,1,7.29,7.29,0,0,0,0,3.13,1.37,1.37,0,0,0,1.42,1A1.35,1.35,0,0,0,903.09,194.55Z"/><path class="cls-5" d="M913.4,197.55a.18.18,0,0,1-.19-.19v-.61h0a3,3,0,0,1-2.51,1,2.71,2.71,0,0,1-3-2.79c0-2,1.53-2.94,3.79-2.94h1.62a.1.1,0,0,0,.11-.11v-.34c0-.85-.41-1.24-1.87-1.24a3.38,3.38,0,0,0-2,.58.14.14,0,0,1-.24,0l-.85-1.48a.19.19,0,0,1,.05-.27,5.86,5.86,0,0,1,3.39-.9c3,0,4.06,1,4.06,3.29v5.85a.18.18,0,0,1-.19.19Zm-.23-3v-.62a.1.1,0,0,0-.11-.11h-1.28c-1.12,0-1.62.32-1.62,1s.45,1,1.31,1C912.61,195.77,913.17,195.36,913.17,194.51Z"/><path class="cls-5" d="M923.53,197.55a.18.18,0,0,1-.19-.19v-5.24c0-1-.47-1.66-1.41-1.66s-1.44.66-1.44,1.66v5.24a.18.18,0,0,1-.19.19H918a.18.18,0,0,1-.18-.19v-8.75a.18.18,0,0,1,.18-.19h2.26a.18.18,0,0,1,.19.19v.64h0a2.83,2.83,0,0,1,2.36-1c2,0,3.11,1.39,3.11,3.39v5.75a.18.18,0,0,1-.19.19Z"/><path class="cls-5" d="M928,195.17a8.67,8.67,0,0,1,0-4.37,3.81,3.81,0,0,1,3.94-2.58,4,4,0,0,1,3.45,1.71.18.18,0,0,1,0,.27l-1.64,1.07a.18.18,0,0,1-.28,0,1.63,1.63,0,0,0-1.45-.79,1.34,1.34,0,0,0-1.41,1,7.29,7.29,0,0,0,0,3.13,1.34,1.34,0,0,0,1.41,1,1.63,1.63,0,0,0,1.45-.79.18.18,0,0,1,.28,0l1.64,1.07a.18.18,0,0,1,0,.27,4,4,0,0,1-3.45,1.71A3.81,3.81,0,0,1,928,195.17Z"/><path class="cls-5" d="M936.9,195.15a6.77,6.77,0,0,1-.32-2.17,6.87,6.87,0,0,1,.3-2.18,4.29,4.29,0,0,1,7.86,0,8.69,8.69,0,0,1,.3,2.81.18.18,0,0,1-.2.19h-5.52c-.08,0-.12,0-.12.11a1.91,1.91,0,0,0,.12.51,1.78,1.78,0,0,0,1.88,1.2,2.9,2.9,0,0,0,2.09-.81c.1-.07.19-.09.27,0L944.8,196a.18.18,0,0,1,0,.27,5.23,5.23,0,0,1-3.88,1.52A3.87,3.87,0,0,1,936.9,195.15Zm5.43-3.13c.08,0,.12,0,.12-.11a2.17,2.17,0,0,0-.1-.68,1.66,1.66,0,0,0-3.05,0,2.17,2.17,0,0,0-.1.68c0,.08,0,.11.12.11Z"/><path class="cls-5" d="M669,209.64h0l-1.36,1c-.07,0-.13,0-.13-.08v-.88a.2.2,0,0,1,.09-.17l1.4-1a.26.26,0,0,1,.19-.07h.72a.11.11,0,0,1,.12.12v7.91a.12.12,0,0,1-.12.12h-.77a.12.12,0,0,1-.12-.12Z"/><path class="cls-5" d="M674.24,209.64h0l-1.35,1c-.07,0-.13,0-.13-.08v-.88a.19.19,0,0,1,.08-.17l1.4-1a.27.27,0,0,1,.2-.07h.71c.08,0,.13,0,.13.12v7.91a.12.12,0,0,1-.13.12h-.76a.12.12,0,0,1-.12-.12Z"/><path class="cls-5" d="M677.8,212.44a9.18,9.18,0,0,1,.18-2.66,2.38,2.38,0,0,1,4.46,0,9.18,9.18,0,0,1,.18,2.66,9.28,9.28,0,0,1-.18,2.67,2.38,2.38,0,0,1-4.46,0A9.28,9.28,0,0,1,677.8,212.44Zm2.41,3.28a1.22,1.22,0,0,0,1.24-.82,23.25,23.25,0,0,0,0-4.91,1.35,1.35,0,0,0-2.48,0,23.25,23.25,0,0,0,0,4.91A1.22,1.22,0,0,0,680.21,215.72Z"/><path class="cls-5" d="M667.78,452.7h0l-1.35.94c-.07.05-.13,0-.13-.07v-.89a.17.17,0,0,1,.08-.16l1.4-1a.27.27,0,0,1,.2-.07h.71a.11.11,0,0,1,.12.12v7.91a.11.11,0,0,1-.12.12h-.76a.12.12,0,0,1-.12-.12Z"/><path class="cls-5" d="M671.34,455.5a9.12,9.12,0,0,1,.18-2.66,2.38,2.38,0,0,1,4.46,0,9.12,9.12,0,0,1,.18,2.66,9.28,9.28,0,0,1-.18,2.67,2.38,2.38,0,0,1-4.46,0A9.28,9.28,0,0,1,671.34,455.5Zm2.41,3.28A1.2,1.2,0,0,0,675,458a21.68,21.68,0,0,0,0-4.92,1.2,1.2,0,0,0-1.23-.81,1.22,1.22,0,0,0-1.24.81,23.34,23.34,0,0,0,0,4.92A1.22,1.22,0,0,0,673.75,458.78Z"/><path class="cls-5" d="M677.8,455.5a9.12,9.12,0,0,1,.18-2.66,2.38,2.38,0,0,1,4.46,0,9.12,9.12,0,0,1,.18,2.66,9.28,9.28,0,0,1-.18,2.67,2.38,2.38,0,0,1-4.46,0A9.28,9.28,0,0,1,677.8,455.5Zm2.41,3.28a1.22,1.22,0,0,0,1.24-.82,23.34,23.34,0,0,0,0-4.92,1.35,1.35,0,0,0-2.48,0,23.34,23.34,0,0,0,0,4.92A1.22,1.22,0,0,0,680.21,458.78Z"/><path class="cls-5" d="M677.8,571.84a9.18,9.18,0,0,1,.18-2.66,2.38,2.38,0,0,1,4.46,0,19.82,19.82,0,0,1,0,5.33,2.38,2.38,0,0,1-4.46,0A9.23,9.23,0,0,1,677.8,571.84Zm2.41,3.28a1.22,1.22,0,0,0,1.24-.82,23.25,23.25,0,0,0,0-4.91,1.35,1.35,0,0,0-2.48,0,23.25,23.25,0,0,0,0,4.91A1.22,1.22,0,0,0,680.21,575.12Z"/><path class="cls-5" d="M668,330.37h0l-1.36.95c-.07,0-.13,0-.13-.08v-.88a.2.2,0,0,1,.09-.17l1.4-1a.26.26,0,0,1,.19-.07h.72a.11.11,0,0,1,.12.12v7.91a.12.12,0,0,1-.12.12h-.77a.11.11,0,0,1-.11-.12Z"/><path class="cls-5" d="M671.51,333.17a9.18,9.18,0,0,1,.18-2.66,2.38,2.38,0,0,1,4.46,0,9.64,9.64,0,0,1,.18,2.66,9.74,9.74,0,0,1-.18,2.67,2.38,2.38,0,0,1-4.46,0A9.28,9.28,0,0,1,671.51,333.17Zm2.41,3.28a1.2,1.2,0,0,0,1.23-.82,23.25,23.25,0,0,0,0-4.91,1.2,1.2,0,0,0-1.23-.82,1.22,1.22,0,0,0-1.24.82,23.25,23.25,0,0,0,0,4.91A1.22,1.22,0,0,0,673.92,336.45Z"/><path class="cls-5" d="M678.09,335.54l.7-.18a.12.12,0,0,1,.16.09,1.26,1.26,0,0,0,1.33,1,1.19,1.19,0,0,0,1.2-.81,2.88,2.88,0,0,0,.11-1,3.18,3.18,0,0,0-.12-1,1.14,1.14,0,0,0-1.19-.79,1.21,1.21,0,0,0-1.2.76c0,.08-.06.12-.14.12h-.71a.12.12,0,0,1-.12-.12v-4.34a.11.11,0,0,1,.12-.12h4.1a.11.11,0,0,1,.12.12v.69a.11.11,0,0,1-.12.12h-3.21a.06.06,0,0,0-.07.07v2.29h0a1.76,1.76,0,0,1,1.35-.52,1.94,1.94,0,0,1,2,1.34,4.53,4.53,0,0,1,.18,1.42,4.07,4.07,0,0,1-.17,1.31,2.37,2.37,0,0,1-4.46-.26A.12.12,0,0,1,678.09,335.54Z"/><path class="cls-5" d="M857.93,427.14a.22.22,0,0,1-.23-.23v-6.06L853.15,412a.18.18,0,0,1,.19-.25h1.6a.36.36,0,0,1,.34.23l3.44,6.58h0l3.42-6.58a.31.31,0,0,1,.31-.23h1.56c.18,0,.23.12.18.25l-4.54,8.84v6.06a.22.22,0,0,1-.23.23Z"/><path class="cls-5" d="M864.75,424.45a8.35,8.35,0,0,1-.37-2.74,8.52,8.52,0,0,1,.34-2.73,4.56,4.56,0,0,1,8.51,0,9.56,9.56,0,0,1,.34,3.09.23.23,0,0,1-.25.23h-6.86c-.09,0-.13.05-.13.14a4.17,4.17,0,0,0,.18,1.31,2.67,2.67,0,0,0,2.74,1.87,3.57,3.57,0,0,0,2.78-1.19.23.23,0,0,1,.34-.05l.92.84a.19.19,0,0,1,0,.31,5.26,5.26,0,0,1-4.23,1.86A4.17,4.17,0,0,1,864.75,424.45Zm6.73-3.67c.1,0,.14,0,.14-.13a3.61,3.61,0,0,0-.16-1.22,2.67,2.67,0,0,0-5,0,3.61,3.61,0,0,0-.16,1.22c0,.09,0,.13.13.13Z"/><path class="cls-5" d="M882.89,427.14a.21.21,0,0,1-.22-.23v-1h0a3.52,3.52,0,0,1-3.21,1.43c-2,0-3.64-1.06-3.64-3.26s1.59-3.35,4.23-3.35h2.47c.09,0,.13,0,.13-.13v-.79c0-1.49-.59-2.13-2.6-2.13a4.21,4.21,0,0,0-2.62.77c-.12.09-.25.09-.32,0l-.61-1a.24.24,0,0,1,0-.32,6,6,0,0,1,3.68-1.06c3.08,0,4.25,1,4.25,3.68v7.17a.21.21,0,0,1-.22.23Zm-.27-3.51v-1.19c0-.09,0-.14-.13-.14h-2.17c-1.88,0-2.7.54-2.7,1.76s.82,1.7,2.27,1.7C881.58,425.76,882.62,425,882.62,423.63Z"/><path class="cls-5" d="M888,427.14a.21.21,0,0,1-.22-.23V416.53a.21.21,0,0,1,.22-.22h1.45a.22.22,0,0,1,.23.22v1.11h0a3,3,0,0,1,2.87-1.58,3.39,3.39,0,0,1,2.22.81c.11.12.13.21,0,.32L894,418.3a.21.21,0,0,1-.32,0,3.12,3.12,0,0,0-1.68-.52c-1.65,0-2.32,1.29-2.32,3.17v5.92a.22.22,0,0,1-.23.23Z"/><rect class="cls-6" x="848.11" y="333.84" width="51.66" height="242.08"/><rect class="cls-7" x="744.79" y="454.24" width="51.66" height="121.68"/><rect class="cls-8" x="951.43" y="211.57" width="51.66" height="364.35"/></g></svg>