<?xml version="1.0" encoding="utf-8" standalone="no"?>
<!DOCTYPE svg PUBLIC "-//W3C//DTD SVG 1.1//EN"
  "http://www.w3.org/Graphics/SVG/1.1/DTD/svg11.dtd">
<!-- Created with matplotlib (https://matplotlib.org/) -->
<svg height="400px" version="1.1" viewBox="0 0 1200 800" width="600px" xmlns="http://www.w3.org/2000/svg" xmlns:xlink="http://www.w3.org/1999/xlink">
 <metadata>
  <rdf:RDF xmlns:cc="http://creativecommons.org/ns#" xmlns:dc="http://purl.org/dc/elements/1.1/" xmlns:rdf="http://www.w3.org/1999/02/22-rdf-syntax-ns#">
   <cc:Work>
    <dc:type rdf:resource="http://purl.org/dc/dcmitype/StillImage"/>
    <dc:date>2022-03-08T16:20:27.821465</dc:date>
    <dc:format>image/svg+xml</dc:format>
    <dc:creator>
     <cc:Agent>
      <dc:title>Matplotlib v3.3.4, https://matplotlib.org/</dc:title>
     </cc:Agent>
    </dc:creator>
   </cc:Work>
  </rdf:RDF>
 </metadata>
 <defs>
  <style type="text/css">*{stroke-linecap:butt;stroke-linejoin:round;}</style>
 </defs>
 <g id="figure_1">
  <g id="patch_1">
   <path d="M 0 800 
L 1200 800 
L 1200 0 
L 0 0 
z
" style="fill:none;"/>
  </g>
  <g id="axes_1">
   <g id="patch_2">
    <path d="M 150 700 
L 1080 700 
L 1080 96 
L 150 96 
z
" style="fill:#ffffff;"/>
   </g>
   <g id="line2d_1">
    <path clip-path="url(#pf0ac257b8d)" d="M 150 498.666667 
L 1080 498.666667 
" style="fill:none;stroke:#808080;stroke-dasharray:10,5;stroke-dashoffset:0;"/>
   </g>
   <g id="line2d_2">
    <path clip-path="url(#pf0ac257b8d)" d="M 150 297.333333 
L 1080 297.333333 
" style="fill:none;stroke:#808080;stroke-dasharray:10,5;stroke-dashoffset:0;"/>
   </g>
   <g id="line2d_3">
    <path clip-path="url(#pf0ac257b8d)" d="M 336 700 
L 336 96 
" style="fill:none;stroke:#808080;stroke-dasharray:10,5;stroke-dashoffset:0;"/>
   </g>
   <g id="line2d_4">
    <path clip-path="url(#pf0ac257b8d)" d="M 522 700 
L 522 96 
" style="fill:none;stroke:#808080;stroke-dasharray:10,5;stroke-dashoffset:0;"/>
   </g>
   <g id="line2d_5">
    <path clip-path="url(#pf0ac257b8d)" d="M 708 700 
L 708 96 
" style="fill:none;stroke:#808080;stroke-dasharray:10,5;stroke-dashoffset:0;"/>
   </g>
   <g id="line2d_6">
    <path clip-path="url(#pf0ac257b8d)" d="M 894 700 
L 894 96 
" style="fill:none;stroke:#808080;stroke-dasharray:10,5;stroke-dashoffset:0;"/>
   </g>
   <g id="patch_3">
    <path clip-path="url(#pf0ac257b8d)" d="M 150 700 
L 207.04 700 
L 207.04 663.76 
L 150 663.76 
z
" style="fill:#aee938;"/>
   </g>
   <g id="patch_4">
    <path clip-path="url(#pf0ac257b8d)" d="M 207.04 700 
L 264.08 700 
L 264.08 663.76 
L 207.04 663.76 
z
" style="fill:#aee938;"/>
   </g>
   <g id="patch_5">
    <path clip-path="url(#pf0ac257b8d)" d="M 264.08 700 
L 321.12 700 
L 321.12 643.626667 
L 264.08 643.626667 
z
" style="fill:#aee938;"/>
   </g>
   <g id="patch_6">
    <path clip-path="url(#pf0ac257b8d)" d="M 321.12 700 
L 378.16 700 
L 378.16 587.253333 
L 321.12 587.253333 
z
" style="fill:#aee938;"/>
   </g>
   <g id="patch_7">
    <path clip-path="url(#pf0ac257b8d)" d="M 378.16 700 
L 435.2 700 
L 435.2 599.333333 
L 378.16 599.333333 
z
" style="fill:#aee938;"/>
   </g>
   <g id="patch_8">
    <path clip-path="url(#pf0ac257b8d)" d="M 435.2 700 
L 492.24 700 
L 492.24 518.8 
L 435.2 518.8 
z
" style="fill:#aee938;"/>
   </g>
   <g id="patch_9">
    <path clip-path="url(#pf0ac257b8d)" d="M 492.24 700 
L 549.28 700 
L 549.28 502.693333 
L 492.24 502.693333 
z
" style="fill:#aee938;"/>
   </g>
   <g id="patch_10">
    <path clip-path="url(#pf0ac257b8d)" d="M 549.28 700 
L 606.32 700 
L 606.32 398 
L 549.28 398 
z
" style="fill:#aee938;"/>
   </g>
   <g id="patch_11">
    <path clip-path="url(#pf0ac257b8d)" d="M 606.32 700 
L 663.36 700 
L 663.36 393.973333 
L 606.32 393.973333 
z
" style="fill:#aee938;"/>
   </g>
   <g id="patch_12">
    <path clip-path="url(#pf0ac257b8d)" d="M 663.36 700 
L 720.4 700 
L 720.4 301.36 
L 663.36 301.36 
z
" style="fill:#aee938;"/>
   </g>
   <g id="patch_13">
    <path clip-path="url(#pf0ac257b8d)" d="M 720.4 700 
L 777.44 700 
L 777.44 273.173333 
L 720.4 273.173333 
z
" style="fill:#aee938;"/>
   </g>
   <g id="patch_14">
    <path clip-path="url(#pf0ac257b8d)" d="M 777.44 700 
L 834.48 700 
L 834.48 192.64 
L 777.44 192.64 
z
" style="fill:#aee938;"/>
   </g>
   <g id="patch_15">
    <path clip-path="url(#pf0ac257b8d)" d="M 834.48 700 
L 891.52 700 
L 891.52 192.64 
L 834.48 192.64 
z
" style="fill:#aee938;"/>
   </g>
   <g id="patch_16">
    <path clip-path="url(#pf0ac257b8d)" d="M 891.52 700 
L 948.56 700 
L 948.56 168.48 
L 891.52 168.48 
z
" style="fill:#aee938;"/>
   </g>
   <g id="patch_17">
    <path clip-path="url(#pf0ac257b8d)" d="M 948.56 700 
L 1005.6 700 
L 1005.6 542.96 
L 948.56 542.96 
z
" style="fill:#aee938;"/>
   </g>
   <g id="matplotlib.axis_1">
    <g id="xtick_1">
     <g id="line2d_7">
      <defs>
       <path d="M 0 0 
L 0 3.5 
" id="m5a37ef0ad1" style="stroke:#ffffff;stroke-width:0.8;"/>
      </defs>
      <g>
       <use style="fill:#ffffff;stroke:#ffffff;stroke-width:0.8;" x="336" xlink:href="#m5a37ef0ad1" y="700"/>
      </g>
     </g>
     <g id="text_1">
      <!-- 10 -->
      <g style="fill:#ffffff;" transform="translate(320.4975 730.9)scale(0.24 -0.24)">
       <defs>
        <path d="M 32.703125 72.5 
C 29 64.59375 23.09375 63.296875 11 63 
L 11 56.703125 
L 29.5 56.703125 
L 29.5 7.90625 
L 11 7.90625 
L 11 0 
L 53.90625 0 
L 53.90625 7.90625 
L 38.703125 7.90625 
L 38.703125 72.5 
z
" id="SuisseIntlMono-49"/>
        <path d="M 32.203125 -1.296875 
C 50.5 -1.296875 57.59375 14.09375 57.59375 36.59375 
C 57.59375 59.09375 50.5 73.796875 32.203125 73.796875 
C 13.90625 73.796875 6.90625 59.09375 6.90625 36.59375 
C 6.90625 14.09375 13.90625 -1.296875 32.203125 -1.296875 
z
M 16.203125 36.59375 
C 16.203125 56.40625 21.296875 66 32.203125 66 
C 40.90625 66 46 59.796875 47.59375 47.203125 
L 16.296875 32.90625 
C 16.203125 34.09375 16.203125 35.296875 16.203125 36.59375 
z
M 32.203125 6.59375 
C 23.59375 6.59375 18.59375 12.90625 16.90625 25.296875 
L 48.203125 39.796875 
C 48.296875 38.703125 48.296875 37.703125 48.296875 36.59375 
C 48.296875 16.796875 43.09375 6.59375 32.203125 6.59375 
z
" id="SuisseIntlMono-48"/>
       </defs>
       <use xlink:href="#SuisseIntlMono-49"/>
       <use x="64.599991" xlink:href="#SuisseIntlMono-48"/>
      </g>
     </g>
    </g>
    <g id="xtick_2">
     <g id="line2d_8">
      <g>
       <use style="fill:#ffffff;stroke:#ffffff;stroke-width:0.8;" x="522" xlink:href="#m5a37ef0ad1" y="700"/>
      </g>
     </g>
     <g id="text_2">
      <!-- 20 -->
      <g style="fill:#ffffff;" transform="translate(506.4975 730.9)scale(0.24 -0.24)">
       <defs>
        <path d="M 33.40625 73.796875 
C 18.703125 73.796875 9.09375 63.296875 9.296875 49.5 
L 18.703125 49.5 
C 18.90625 61.40625 25.796875 66 33.296875 66 
C 41.5 66 45.796875 60.59375 45.796875 53.09375 
C 45.796875 40.40625 32.296875 26.796875 8 7.90625 
L 8 0 
L 56.90625 0 
L 56.90625 7.90625 
L 20.90625 7.90625 
C 39.40625 22.703125 55.59375 37.5 55.59375 54.296875 
C 55.59375 66.59375 46.09375 73.796875 33.40625 73.796875 
z
" id="SuisseIntlMono-50"/>
       </defs>
       <use xlink:href="#SuisseIntlMono-50"/>
       <use x="64.599991" xlink:href="#SuisseIntlMono-48"/>
      </g>
     </g>
    </g>
    <g id="xtick_3">
     <g id="line2d_9">
      <g>
       <use style="fill:#ffffff;stroke:#ffffff;stroke-width:0.8;" x="708" xlink:href="#m5a37ef0ad1" y="700"/>
      </g>
     </g>
     <g id="text_3">
      <!-- 30 -->
      <g style="fill:#ffffff;" transform="translate(692.4975 730.9)scale(0.24 -0.24)">
       <defs>
        <path d="M 32 6.59375 
C 22.296875 6.59375 17.296875 12.796875 16.296875 21.59375 
L 7 21.59375 
C 7.90625 9.796875 15.796875 -1.296875 31.90625 -1.296875 
C 44.703125 -1.296875 57.296875 6 57.296875 20.40625 
C 57.296875 27.796875 54.40625 35.203125 44.203125 38.703125 
C 51.5 41.703125 55.5 48.09375 55.5 55.5 
C 55.5 68.703125 44.296875 73.796875 32.59375 73.796875 
C 18.40625 73.796875 9 64.796875 8 52 
L 17.40625 52 
C 18.09375 60.09375 23.09375 66 32.296875 66 
C 39.703125 66 45.703125 61.90625 45.703125 54.59375 
C 45.703125 46.203125 39.296875 42.296875 27.40625 42.296875 
L 26.296875 42.296875 
L 26.296875 34.203125 
L 27.703125 34.203125 
C 38.796875 34.203125 47.5 30.5 47.5 20.296875 
C 47.5 11.703125 41.203125 6.59375 32 6.59375 
z
" id="SuisseIntlMono-51"/>
       </defs>
       <use xlink:href="#SuisseIntlMono-51"/>
       <use x="64.599991" xlink:href="#SuisseIntlMono-48"/>
      </g>
     </g>
    </g>
    <g id="xtick_4">
     <g id="line2d_10">
      <g>
       <use style="fill:#ffffff;stroke:#ffffff;stroke-width:0.8;" x="894" xlink:href="#m5a37ef0ad1" y="700"/>
      </g>
     </g>
     <g id="text_4">
      <!-- 40 -->
      <g style="fill:#ffffff;" transform="translate(878.4975 730.9)scale(0.24 -0.24)">
       <defs>
        <path d="M 38.5 60.09375 
L 38.5 26.5 
L 13.90625 26.5 
z
M 59.796875 26.5 
L 47.703125 26.5 
L 47.703125 72.5 
L 38.40625 72.5 
L 4.296875 26.5 
L 4.296875 17.90625 
L 38.5 17.90625 
L 38.5 0 
L 47.703125 0 
L 47.703125 17.90625 
L 59.796875 17.90625 
z
" id="SuisseIntlMono-52"/>
       </defs>
       <use xlink:href="#SuisseIntlMono-52"/>
       <use x="64.599991" xlink:href="#SuisseIntlMono-48"/>
      </g>
     </g>
    </g>
    <g id="text_5">
     <!-- Years of experience -->
     <g style="fill:#ffffff;" transform="translate(452.015625 781.34625)scale(0.36 -0.36)">
      <defs>
       <path d="M 21.09375 29.796875 
L 0.90625 70 
L 14.90625 70 
L 27.59375 42.796875 
L 40.296875 70 
L 54.296875 70 
L 34.09375 29.796875 
L 34.09375 0 
L 21.09375 0 
z
" id="ApercuPro-Bold-89"/>
       <path d="M 51.90625 21.203125 
L 17.09375 21.203125 
Q 17.90625 15.59375 21.046875 12.6875 
Q 24.203125 9.796875 29.09375 9.796875 
Q 33.296875 9.796875 36.140625 11.6875 
Q 39 13.59375 41.296875 17.59375 
L 51.296875 13.90625 
Q 48.203125 6.796875 42.640625 3 
Q 37.09375 -0.796875 28.40625 -0.796875 
Q 20.203125 -0.796875 14.75 3.046875 
Q 9.296875 6.90625 6.75 12.84375 
Q 4.203125 18.796875 4.203125 25.203125 
Q 4.203125 31.59375 6.75 37.546875 
Q 9.296875 43.5 14.75 47.34375 
Q 20.203125 51.203125 28.40625 51.203125 
Q 36.296875 51.203125 41.59375 47.453125 
Q 46.90625 43.703125 49.40625 38 
Q 51.90625 32.296875 51.90625 26.296875 
z
M 39.203125 31 
Q 38.296875 35.203125 35.640625 37.890625 
Q 33 40.59375 28.40625 40.59375 
Q 24.40625 40.59375 21.5 38.140625 
Q 18.59375 35.703125 17.40625 31 
z
" id="ApercuPro-Bold-101"/>
       <path d="M 19.703125 -0.796875 
Q 13 -0.796875 8.703125 3.203125 
Q 4.40625 7.203125 4.40625 14.5 
Q 4.40625 22 10.09375 26.5 
Q 15.796875 31 25.5 31 
L 34.296875 31 
L 34.296875 33.203125 
Q 34.296875 36.90625 31.796875 38.75 
Q 29.296875 40.59375 25.5 40.59375 
Q 19 40.59375 16.796875 34.796875 
L 6.296875 37.203125 
Q 7.5 43.5 12.75 47.34375 
Q 18 51.203125 25.5 51.203125 
Q 35.59375 51.203125 41.140625 45.84375 
Q 46.703125 40.5 46.703125 30.09375 
L 46.703125 0 
L 36.5 0 
L 35.203125 6.40625 
Q 29.296875 -0.796875 19.703125 -0.796875 
z
M 23 9.796875 
Q 27.5 9.796875 30.890625 12.640625 
Q 34.296875 15.5 34.296875 20.203125 
L 34.296875 21.203125 
L 26 21.203125 
Q 21.90625 21.203125 19.65625 19.59375 
Q 17.40625 18 17.40625 14.703125 
Q 17.40625 12.5 18.953125 11.140625 
Q 20.5 9.796875 23 9.796875 
z
" id="ApercuPro-Bold-97"/>
       <path d="M 19.40625 50.40625 
L 19.40625 42.203125 
Q 22.09375 46.5 26 48.84375 
Q 29.90625 51.203125 34.296875 51.203125 
Q 37.09375 51.203125 40.40625 50.203125 
L 38.09375 38.703125 
Q 35.796875 40.09375 32.90625 40.09375 
Q 27 40.09375 23.203125 34.75 
Q 19.40625 29.40625 19.40625 17.90625 
L 19.40625 0 
L 7 0 
L 7 50.40625 
z
" id="ApercuPro-Bold-114"/>
       <path d="M 23.40625 -0.796875 
Q 15.59375 -0.796875 10.34375 3.203125 
Q 5.09375 7.203125 3.40625 12.796875 
L 13.296875 18.09375 
Q 14.703125 14.203125 17.25 12 
Q 19.796875 9.796875 23.296875 9.796875 
Q 25.703125 9.796875 27.390625 11.046875 
Q 29.09375 12.296875 29.09375 14.703125 
Q 29.09375 17 26.5 18.640625 
Q 23.90625 20.296875 18.703125 22.296875 
Q 13 24.59375 9.84375 28.09375 
Q 6.703125 31.59375 6.703125 37.09375 
Q 6.703125 41 8.75 44.203125 
Q 10.796875 47.40625 14.390625 49.296875 
Q 18 51.203125 22.59375 51.203125 
Q 27.703125 51.203125 31.890625 49.046875 
Q 36.09375 46.90625 38.40625 43 
L 31 36.203125 
Q 28 40.59375 22.90625 40.59375 
Q 20.90625 40.59375 19.453125 39.546875 
Q 18 38.5 18 36.796875 
Q 18 35 20.09375 33.453125 
Q 22.203125 31.90625 28.296875 29.703125 
Q 34.203125 27.59375 37.390625 24.1875 
Q 40.59375 20.796875 40.59375 15.5 
Q 40.59375 8.09375 35.796875 3.640625 
Q 31 -0.796875 23.40625 -0.796875 
z
" id="ApercuPro-Bold-115"/>
       <path id="ApercuPro-Bold-32"/>
       <path d="M 29.796875 -0.796875 
Q 21.90625 -0.796875 16.09375 2.59375 
Q 10.296875 6 7.25 11.890625 
Q 4.203125 17.796875 4.203125 25.203125 
Q 4.203125 32.59375 7.25 38.5 
Q 10.296875 44.40625 16.09375 47.796875 
Q 21.90625 51.203125 29.796875 51.203125 
Q 37.703125 51.203125 43.5 47.796875 
Q 49.296875 44.40625 52.34375 38.5 
Q 55.40625 32.59375 55.40625 25.203125 
Q 55.40625 17.796875 52.34375 11.890625 
Q 49.296875 6 43.5 2.59375 
Q 37.703125 -0.796875 29.796875 -0.796875 
z
M 29.796875 9.796875 
Q 35.59375 9.796875 39 14.25 
Q 42.40625 18.703125 42.40625 25.203125 
Q 42.40625 31.703125 39 36.140625 
Q 35.59375 40.59375 29.796875 40.59375 
Q 24 40.59375 20.59375 36.140625 
Q 17.203125 31.703125 17.203125 25.203125 
Q 17.203125 18.703125 20.59375 14.25 
Q 24 9.796875 29.796875 9.796875 
z
" id="ApercuPro-Bold-111"/>
       <path d="M 0.90625 39.796875 
L 0.90625 50.40625 
L 7.296875 50.40625 
L 7.296875 53 
Q 7.296875 61.90625 11.9375 66.34375 
Q 16.59375 70.796875 24.703125 70.796875 
Q 30.40625 70.796875 34.09375 68.796875 
L 31.40625 58.796875 
Q 28.09375 60.203125 25.40625 60.203125 
Q 19.703125 60.203125 19.703125 53.90625 
L 19.703125 50.40625 
L 30.296875 50.40625 
L 30.296875 39.796875 
L 19.703125 39.796875 
L 19.703125 0 
L 7.296875 0 
L 7.296875 39.796875 
z
" id="ApercuPro-Bold-102"/>
       <path d="M 17.40625 26.90625 
L 2.796875 50.40625 
L 15.796875 50.40625 
L 24 37.296875 
L 32.203125 50.40625 
L 45.203125 50.40625 
L 30.59375 26.90625 
L 47.296875 0 
L 34.296875 0 
L 24 16.40625 
L 13.703125 0 
L 0.703125 0 
z
" id="ApercuPro-Bold-120"/>
       <path d="M 19.40625 50.40625 
L 19.40625 48.203125 
L 19.40625 45.203125 
Q 20.59375 47.40625 23.9375 49.296875 
Q 27.296875 51.203125 31.59375 51.203125 
Q 42.703125 51.203125 48.640625 44.140625 
Q 54.59375 37.09375 54.59375 25.203125 
Q 54.59375 13.296875 48.640625 6.25 
Q 42.703125 -0.796875 31.59375 -0.796875 
Q 27.90625 -0.796875 24.5 0.796875 
Q 21.09375 2.40625 19.40625 4.59375 
L 19.40625 1.59375 
L 19.40625 -20.40625 
L 7 -20.40625 
L 7 50.40625 
z
M 29.90625 9.796875 
Q 35 9.796875 38.296875 13.890625 
Q 41.59375 18 41.59375 25.203125 
Q 41.59375 32.5 38.296875 36.546875 
Q 35 40.59375 29.90625 40.59375 
Q 24.796875 40.59375 21.546875 36.546875 
Q 18.296875 32.5 18.296875 25.203125 
Q 18.296875 17.90625 21.546875 13.84375 
Q 24.796875 9.796875 29.90625 9.796875 
z
" id="ApercuPro-Bold-112"/>
       <path d="M 7 50.40625 
L 19.40625 50.40625 
L 19.40625 0 
L 7 0 
z
M 13.203125 56.90625 
Q 9.796875 56.90625 7.5 59.203125 
Q 5.203125 61.5 5.203125 64.90625 
Q 5.203125 68.296875 7.5 70.59375 
Q 9.796875 72.90625 13.203125 72.90625 
Q 16.59375 72.90625 18.890625 70.59375 
Q 21.203125 68.296875 21.203125 64.90625 
Q 21.203125 61.5 18.890625 59.203125 
Q 16.59375 56.90625 13.203125 56.90625 
z
" id="ApercuPro-Bold-105"/>
       <path d="M 19.40625 50.40625 
L 19.40625 42.296875 
Q 22.296875 46.40625 26.296875 48.796875 
Q 30.296875 51.203125 35 51.203125 
Q 42 51.203125 46.25 47.296875 
Q 50.5 43.40625 50.5 36 
L 50.5 0 
L 38.09375 0 
L 38.09375 32.296875 
Q 38.09375 36.59375 36.140625 38.59375 
Q 34.203125 40.59375 30.90625 40.59375 
Q 27.796875 40.59375 25.1875 38.1875 
Q 22.59375 35.796875 21 31.140625 
Q 19.40625 26.5 19.40625 20.09375 
L 19.40625 0 
L 7 0 
L 7 50.40625 
z
" id="ApercuPro-Bold-110"/>
       <path d="M 28.796875 -0.796875 
Q 20.90625 -0.796875 15.34375 2.640625 
Q 9.796875 6.09375 7 12 
Q 4.203125 17.90625 4.203125 25.203125 
Q 4.203125 32.5 7 38.390625 
Q 9.796875 44.296875 15.34375 47.75 
Q 20.90625 51.203125 28.796875 51.203125 
Q 37.203125 51.203125 43.046875 47.546875 
Q 48.90625 43.90625 51.703125 36.796875 
L 40.59375 32.296875 
Q 38.59375 36.40625 35.75 38.5 
Q 32.90625 40.59375 28.796875 40.59375 
Q 23.09375 40.59375 20.140625 36.34375 
Q 17.203125 32.09375 17.203125 25.203125 
Q 17.203125 18.296875 20.140625 14.046875 
Q 23.09375 9.796875 28.796875 9.796875 
Q 32.90625 9.796875 35.75 11.890625 
Q 38.59375 14 40.59375 18.09375 
L 51.703125 13.59375 
Q 48.90625 6.5 43.046875 2.84375 
Q 37.203125 -0.796875 28.796875 -0.796875 
z
" id="ApercuPro-Bold-99"/>
      </defs>
      <use xlink:href="#ApercuPro-Bold-89"/>
      <use x="55.199997" xlink:href="#ApercuPro-Bold-101"/>
      <use x="111.299988" xlink:href="#ApercuPro-Bold-97"/>
      <use x="163.999985" xlink:href="#ApercuPro-Bold-114"/>
      <use x="205.699982" xlink:href="#ApercuPro-Bold-115"/>
      <use x="249.899979" xlink:href="#ApercuPro-Bold-32"/>
      <use x="274.699966" xlink:href="#ApercuPro-Bold-111"/>
      <use x="334.299957" xlink:href="#ApercuPro-Bold-102"/>
      <use x="368.599945" xlink:href="#ApercuPro-Bold-32"/>
      <use x="393.399933" xlink:href="#ApercuPro-Bold-101"/>
      <use x="449.499924" xlink:href="#ApercuPro-Bold-120"/>
      <use x="497.499908" xlink:href="#ApercuPro-Bold-112"/>
      <use x="556.299896" xlink:href="#ApercuPro-Bold-101"/>
      <use x="612.399887" xlink:href="#ApercuPro-Bold-114"/>
      <use x="654.099884" xlink:href="#ApercuPro-Bold-105"/>
      <use x="680.499878" xlink:href="#ApercuPro-Bold-101"/>
      <use x="736.599869" xlink:href="#ApercuPro-Bold-110"/>
      <use x="794.099854" xlink:href="#ApercuPro-Bold-99"/>
      <use x="849.399841" xlink:href="#ApercuPro-Bold-101"/>
     </g>
    </g>
   </g>
   <g id="matplotlib.axis_2">
    <g id="ytick_1">
     <g id="line2d_11">
      <defs>
       <path d="M 0 0 
L -3.5 0 
" id="mb6448908d2" style="stroke:#ffffff;stroke-width:0.8;"/>
      </defs>
      <g>
       <use style="fill:#ffffff;stroke:#ffffff;stroke-width:0.8;" x="150" xlink:href="#mb6448908d2" y="498.666667"/>
      </g>
     </g>
     <g id="text_6">
      <!-- 50 -->
      <g style="fill:#ffffff;" transform="translate(105.495 507.366667)scale(0.24 -0.24)">
       <defs>
        <path d="M 32.203125 6.59375 
C 22.5 6.59375 17.5 12.796875 16.5 21.59375 
L 7.203125 21.59375 
C 8.09375 9.796875 16 -1.296875 32.09375 -1.296875 
C 45 -1.296875 57.296875 7.5 57.296875 23.90625 
C 57.296875 39.59375 46.09375 48.40625 34.09375 48.40625 
C 28.296875 48.40625 22.90625 46.703125 19.09375 43 
L 21.703125 64.703125 
L 54.09375 64.703125 
L 54.09375 72.5 
L 13.90625 72.5 
L 9.203125 33.203125 
L 18.796875 32.796875 
C 20.296875 36.296875 25.09375 40.40625 32 40.40625 
C 39.5 40.40625 47.5 35.59375 47.5 23.796875 
C 47.5 12.796875 40.5 6.59375 32.203125 6.59375 
z
" id="SuisseIntlMono-53"/>
       </defs>
       <use xlink:href="#SuisseIntlMono-53"/>
       <use x="64.599991" xlink:href="#SuisseIntlMono-48"/>
      </g>
     </g>
    </g>
    <g id="ytick_2">
     <g id="line2d_12">
      <g>
       <use style="fill:#ffffff;stroke:#ffffff;stroke-width:0.8;" x="150" xlink:href="#mb6448908d2" y="297.333333"/>
      </g>
     </g>
     <g id="text_7">
      <!-- 100 -->
      <g style="fill:#ffffff;" transform="translate(89.9925 306.033333)scale(0.24 -0.24)">
       <use xlink:href="#SuisseIntlMono-49"/>
       <use x="64.599991" xlink:href="#SuisseIntlMono-48"/>
       <use x="129.199982" xlink:href="#SuisseIntlMono-48"/>
      </g>
     </g>
    </g>
    <g id="text_8">
     <!-- Frequency -->
     <g style="fill:#ffffff;" transform="translate(62.64625 485.8175)rotate(-90)scale(0.36 -0.36)">
      <defs>
       <path d="M 8 70 
L 52.296875 70 
L 52.296875 58 
L 21 58 
L 21 42 
L 46.203125 42 
L 46.203125 30 
L 21 30 
L 21 0 
L 8 0 
z
" id="ApercuPro-Bold-70"/>
       <path d="M 39.40625 4.59375 
Q 37.703125 2.40625 34.296875 0.796875 
Q 30.90625 -0.796875 27.203125 -0.796875 
Q 16.09375 -0.796875 10.140625 6.25 
Q 4.203125 13.296875 4.203125 25.203125 
Q 4.203125 37.09375 10.140625 44.140625 
Q 16.09375 51.203125 27.203125 51.203125 
Q 31.5 51.203125 34.84375 49.296875 
Q 38.203125 47.40625 39.40625 45.203125 
L 39.40625 48.203125 
L 39.40625 50.40625 
L 51.796875 50.40625 
L 51.796875 -20.40625 
L 39.40625 -20.40625 
L 39.40625 1.59375 
z
M 28.90625 9.796875 
Q 34 9.796875 37.25 13.84375 
Q 40.5 17.90625 40.5 25.203125 
Q 40.5 32.5 37.25 36.546875 
Q 34 40.59375 28.90625 40.59375 
Q 23.796875 40.59375 20.5 36.546875 
Q 17.203125 32.5 17.203125 25.203125 
Q 17.203125 18 20.5 13.890625 
Q 23.796875 9.796875 28.90625 9.796875 
z
" id="ApercuPro-Bold-113"/>
       <path d="M 22.5 -0.796875 
Q 15.5 -0.796875 11.25 3.09375 
Q 7 7 7 14.40625 
L 7 50.40625 
L 19.40625 50.40625 
L 19.40625 18.09375 
Q 19.40625 13.796875 21.34375 11.796875 
Q 23.296875 9.796875 26.59375 9.796875 
Q 29.703125 9.796875 32.296875 12.1875 
Q 34.90625 14.59375 36.5 19.25 
Q 38.09375 23.90625 38.09375 30.296875 
L 38.09375 50.40625 
L 50.5 50.40625 
L 50.5 0 
L 38.09375 0 
L 38.09375 8.09375 
Q 35.203125 4 31.203125 1.59375 
Q 27.203125 -0.796875 22.5 -0.796875 
z
" id="ApercuPro-Bold-117"/>
       <path d="M 36.203125 50.40625 
L 48.59375 50.40625 
L 22.59375 -20.40625 
L 10.59375 -20.40625 
L 19.203125 3.40625 
L 1 50.40625 
L 13.5 50.40625 
L 25 19.40625 
z
" id="ApercuPro-Bold-121"/>
      </defs>
      <use xlink:href="#ApercuPro-Bold-70"/>
      <use x="55.299988" xlink:href="#ApercuPro-Bold-114"/>
      <use x="96.999985" xlink:href="#ApercuPro-Bold-101"/>
      <use x="153.099976" xlink:href="#ApercuPro-Bold-113"/>
      <use x="211.899963" xlink:href="#ApercuPro-Bold-117"/>
      <use x="269.399948" xlink:href="#ApercuPro-Bold-101"/>
      <use x="325.499939" xlink:href="#ApercuPro-Bold-110"/>
      <use x="382.999924" xlink:href="#ApercuPro-Bold-99"/>
      <use x="438.299911" xlink:href="#ApercuPro-Bold-121"/>
     </g>
    </g>
   </g>
   <g id="patch_18">
    <path d="M 150 700 
L 150 96 
" style="fill:none;stroke:#000000;stroke-linecap:square;stroke-linejoin:miter;"/>
   </g>
   <g id="patch_19">
    <path d="M 1080 700 
L 1080 96 
" style="fill:none;stroke:#000000;stroke-linecap:square;stroke-linejoin:miter;"/>
   </g>
   <g id="patch_20">
    <path d="M 150 700 
L 1080 700 
" style="fill:none;stroke:#000000;stroke-linecap:square;stroke-linejoin:miter;"/>
   </g>
   <g id="patch_21">
    <path d="M 150 96 
L 1080 96 
" style="fill:none;stroke:#000000;stroke-linecap:square;stroke-linejoin:miter;"/>
   </g>
   <g id="text_9">
    <!-- Left-skewed distribution -->
    <g style="fill:#ffffff;" transform="translate(276.0375 76)scale(0.6 -0.6)">
     <defs>
      <path d="M 8 70 
L 21 70 
L 21 12 
L 50.703125 12 
L 50.703125 0 
L 8 0 
z
" id="ApercuPro-Bold-76"/>
      <path d="M 27.203125 -0.796875 
Q 18.5 -0.796875 13.59375 3.890625 
Q 8.703125 8.59375 8.703125 17.796875 
L 8.703125 39.796875 
L 0.90625 39.796875 
L 0.90625 50.40625 
L 8.703125 50.40625 
L 8.703125 63 
L 21.09375 70.796875 
L 21.09375 50.40625 
L 34.40625 50.40625 
L 34.40625 39.796875 
L 21.09375 39.796875 
L 21.09375 18 
Q 21.09375 13.5 22.75 11.640625 
Q 24.40625 9.796875 27.703125 9.796875 
Q 30.203125 9.796875 32.5 11 
L 35.40625 1 
Q 31.5 -0.796875 27.203125 -0.796875 
z
" id="ApercuPro-Bold-116"/>
      <path d="M 6.5 37.09375 
L 43.796875 37.09375 
L 43.796875 26.296875 
L 6.5 26.296875 
z
" id="ApercuPro-Bold-45"/>
      <path d="M 7 70.796875 
L 19.40625 70.796875 
L 19.40625 30.59375 
L 35.796875 50.40625 
L 51.09375 50.40625 
L 30.90625 27.203125 
L 52.40625 0 
L 37.203125 0 
L 19.40625 23.796875 
L 19.40625 0 
L 7 0 
z
" id="ApercuPro-Bold-107"/>
      <path d="M 1.09375 50.40625 
L 13.59375 50.40625 
L 22.59375 15.796875 
L 31.09375 50.40625 
L 42.703125 50.40625 
L 51.203125 15.796875 
L 60.203125 50.40625 
L 72.703125 50.40625 
L 56.59375 0 
L 45.59375 0 
L 36.90625 32.59375 
L 28.203125 0 
L 17.203125 0 
z
" id="ApercuPro-Bold-119"/>
      <path d="M 26.203125 -0.796875 
Q 15.703125 -0.796875 9.953125 6.25 
Q 4.203125 13.296875 4.203125 25.203125 
Q 4.203125 37.09375 9.953125 44.140625 
Q 15.703125 51.203125 26.203125 51.203125 
Q 30.5 51.203125 34.046875 49.640625 
Q 37.59375 48.09375 39.40625 45.796875 
L 39.40625 48.796875 
L 39.40625 70.796875 
L 51.796875 70.796875 
L 51.796875 0 
L 39.40625 0 
L 39.40625 2.203125 
L 39.40625 5.203125 
Q 38.203125 2.90625 34.640625 1.046875 
Q 31.09375 -0.796875 26.203125 -0.796875 
z
M 28.90625 9.796875 
Q 34 9.796875 37.25 13.84375 
Q 40.5 17.90625 40.5 25.203125 
Q 40.5 32.5 37.25 36.546875 
Q 34 40.59375 28.90625 40.59375 
Q 23.796875 40.59375 20.5 36.546875 
Q 17.203125 32.5 17.203125 25.203125 
Q 17.203125 18 20.5 13.890625 
Q 23.796875 9.796875 28.90625 9.796875 
z
" id="ApercuPro-Bold-100"/>
      <path d="M 31.59375 -0.796875 
Q 27.296875 -0.796875 23.9375 1.09375 
Q 20.59375 3 19.40625 5.203125 
L 19.40625 2.203125 
L 19.40625 0 
L 7 0 
L 7 70.796875 
L 19.40625 70.796875 
L 19.40625 48.796875 
L 19.40625 45.796875 
Q 21.09375 48 24.5 49.59375 
Q 27.90625 51.203125 31.59375 51.203125 
Q 42.703125 51.203125 48.640625 44.140625 
Q 54.59375 37.09375 54.59375 25.203125 
Q 54.59375 13.296875 48.640625 6.25 
Q 42.703125 -0.796875 31.59375 -0.796875 
z
M 29.90625 9.796875 
Q 35 9.796875 38.296875 13.890625 
Q 41.59375 18 41.59375 25.203125 
Q 41.59375 32.5 38.296875 36.546875 
Q 35 40.59375 29.90625 40.59375 
Q 24.796875 40.59375 21.546875 36.546875 
Q 18.296875 32.5 18.296875 25.203125 
Q 18.296875 17.90625 21.546875 13.84375 
Q 24.796875 9.796875 29.90625 9.796875 
z
" id="ApercuPro-Bold-98"/>
     </defs>
     <use xlink:href="#ApercuPro-Bold-76"/>
     <use x="54.099991" xlink:href="#ApercuPro-Bold-101"/>
     <use x="110.199982" xlink:href="#ApercuPro-Bold-102"/>
     <use x="144.499969" xlink:href="#ApercuPro-Bold-116"/>
     <use x="181.499954" xlink:href="#ApercuPro-Bold-45"/>
     <use x="231.799942" xlink:href="#ApercuPro-Bold-115"/>
     <use x="275.999939" xlink:href="#ApercuPro-Bold-107"/>
     <use x="328.999924" xlink:href="#ApercuPro-Bold-101"/>
     <use x="385.099915" xlink:href="#ApercuPro-Bold-119"/>
     <use x="458.899902" xlink:href="#ApercuPro-Bold-101"/>
     <use x="514.999893" xlink:href="#ApercuPro-Bold-100"/>
     <use x="573.799881" xlink:href="#ApercuPro-Bold-32"/>
     <use x="598.599869" xlink:href="#ApercuPro-Bold-100"/>
     <use x="657.399857" xlink:href="#ApercuPro-Bold-105"/>
     <use x="683.79985" xlink:href="#ApercuPro-Bold-115"/>
     <use x="727.999847" xlink:href="#ApercuPro-Bold-116"/>
     <use x="764.999832" xlink:href="#ApercuPro-Bold-114"/>
     <use x="806.699829" xlink:href="#ApercuPro-Bold-105"/>
     <use x="833.099823" xlink:href="#ApercuPro-Bold-98"/>
     <use x="891.899811" xlink:href="#ApercuPro-Bold-117"/>
     <use x="949.399796" xlink:href="#ApercuPro-Bold-116"/>
     <use x="986.39978" xlink:href="#ApercuPro-Bold-105"/>
     <use x="1012.799774" xlink:href="#ApercuPro-Bold-111"/>
     <use x="1072.399765" xlink:href="#ApercuPro-Bold-110"/>
    </g>
   </g>
  </g>
 </g>
 <defs>
  <clipPath id="pf0ac257b8d">
   <rect height="604" width="930" x="150" y="96"/>
  </clipPath>
 </defs>
</svg>
