<svg xmlns="http://www.w3.org/2000/svg" width="1200" height="800" viewBox="0 0 1200 800">
  <defs>
    <style>
      .cls-1 {
        fill: #10162f;
      }

      .cls-2 {
        fill: #d0f1ff;
      }

      .cls-3 {
        fill: #ff8c00;
      }

      .cls-4 {
        fill: #66c4ff;
      }

      .cls-5 {
        fill: #e0e0e0;
      }

      .cls-6 {
        fill: #520bab;
      }

      .cls-7 {
        fill: #1557ff;
      }

      .cls-8 {
        fill: #fff;
      }

      .cls-9 {
        fill: #aee938;
      }
    </style>
  </defs>
  <g id="bg">
    <rect class="cls-1" width="1200" height="800"/>
  </g>
  <g id="Layer_18" data-name="Layer 18">
    <g>
      <rect class="cls-2" x="304.49" y="145.28" width="110.41" height="110.41"/>
      <rect class="cls-3" x="304.49" y="344.79" width="110.41" height="110.41"/>
      <rect class="cls-3" x="304.49" y="544.31" width="110.41" height="110.41"/>
      <rect class="cls-4" x="445.46" y="145.28" width="110.41" height="110.41"/>
      <rect class="cls-5" x="445.46" y="344.79" width="110.41" height="110.41"/>
      <rect class="cls-6" x="445.46" y="544.31" width="110.41" height="110.41"/>
      <rect class="cls-7" x="585.73" y="145.28" width="110.41" height="110.41"/>
      <g>
        <path class="cls-8" d="M742.5,213.66a13.6,13.6,0,0,1-7-1.78l1-3.15a15.46,15.46,0,0,0,3,1.23,11.4,11.4,0,0,0,3.15.47,4.32,4.32,0,0,0,2.86-.82,2.89,2.89,0,0,0,1-2.33c0-1.35-.9-2.28-2.7-2.8l-1.07-.32c-.58-.17-1.13-.33-1.65-.5s-.88-.28-1.1-.37c-2.88-1-4.32-2.91-4.32-5.68a5.33,5.33,0,0,1,2.07-4.5,8.85,8.85,0,0,1,5.5-1.58,13.25,13.25,0,0,1,6.69,1.6l-1.2,2.9a13.07,13.07,0,0,0-5.33-1.29,4.74,4.74,0,0,0-2.67.62,2.48,2.48,0,0,0-1,2.07,2.25,2.25,0,0,0,1.77,2.33c.23.09.81.28,1.73.57l1.79.57a9.57,9.57,0,0,1,4.21,2.41,5.85,5.85,0,0,1,1.26,4,5.54,5.54,0,0,1-2.16,4.7A9.45,9.45,0,0,1,742.5,213.66Z"/>
        <path class="cls-8" d="M761,213.68a8,8,0,0,1-6-2.24,8.46,8.46,0,0,1-2.17-6.17,8.79,8.79,0,0,1,2-6.11,7.14,7.14,0,0,1,5.55-2.28,6.53,6.53,0,0,1,5.17,2.08,8,8,0,0,1,1.83,5.52v.8c0,.38,0,.65,0,.82H756.63a5.07,5.07,0,0,0,1.24,3.5,4.29,4.29,0,0,0,3.24,1.24,10.13,10.13,0,0,0,5.07-1.38l.54,2.72A10.69,10.69,0,0,1,761,213.68Zm-4.26-10h7a4.52,4.52,0,0,0-.9-3,3.07,3.07,0,0,0-2.47-1.06,3.4,3.4,0,0,0-2.5,1A4.6,4.6,0,0,0,756.71,203.69Z"/>
        <path class="cls-8" d="M781,220.06v-6.81c0-.67,0-1.36.11-2.08a5,5,0,0,1-4.6,2.52,6.17,6.17,0,0,1-5-2.34,9.38,9.38,0,0,1-1.9-6.11,9.57,9.57,0,0,1,1.8-6.05,6,6,0,0,1,5-2.31,5.29,5.29,0,0,1,4.76,2.44l.31-2h3.37v22.6Zm-3.75-9.28a3.44,3.44,0,0,0,2.87-1.26,6.51,6.51,0,0,0,1-4,7.57,7.57,0,0,0-1-4.36,3.4,3.4,0,0,0-3-1.36,3.27,3.27,0,0,0-2.79,1.37,8.71,8.71,0,0,0,0,8.2A3.3,3.3,0,0,0,777.28,210.78Z"/>
        <path class="cls-8" d="M800.43,212.1a8.88,8.88,0,0,1-10.1,0,5.61,5.61,0,0,1-1.91-4.6V197.27h3.85v10.09A3.75,3.75,0,0,0,793,210a3.91,3.91,0,0,0,4.75,0,3.81,3.81,0,0,0,.74-2.62V197.27h3.83v10.24A5.59,5.59,0,0,1,800.43,212.1Z"/>
        <path class="cls-8" d="M813.26,213.68a8,8,0,0,1-6-2.24,8.5,8.5,0,0,1-2.16-6.17,8.79,8.79,0,0,1,2-6.11,7.14,7.14,0,0,1,5.55-2.28A6.5,6.5,0,0,1,817.8,199a8,8,0,0,1,1.84,5.52v.8c0,.38,0,.65,0,.82H808.92a5.07,5.07,0,0,0,1.24,3.5,4.28,4.28,0,0,0,3.24,1.24,10.13,10.13,0,0,0,5.07-1.38l.54,2.72A10.69,10.69,0,0,1,813.26,213.68Zm-4.27-10h7a4.52,4.52,0,0,0-.89-3,3.07,3.07,0,0,0-2.47-1.06,3.4,3.4,0,0,0-2.5,1A4.66,4.66,0,0,0,809,203.69Z"/>
        <path class="cls-8" d="M822.67,213.37v-16.1h3.09l.43,2a7.61,7.61,0,0,1,5.46-2.43,5.28,5.28,0,0,1,4.21,1.61,7,7,0,0,1,1.4,4.7v10.18h-3.85v-9.71a5.63,5.63,0,0,0-.63-2.92,2.42,2.42,0,0,0-2.21-1,4.3,4.3,0,0,0-2.28.63,3.85,3.85,0,0,0-1.5,1.61,15.81,15.81,0,0,0-.28,3.51v7.84Z"/>
        <path class="cls-8" d="M847.26,213.59a8.22,8.22,0,0,1-2.73-.39,3.56,3.56,0,0,1-1.71-1.22,5.2,5.2,0,0,1-.87-2,13.11,13.11,0,0,1-.25-2.81v-7.6h-2.64l.15-2.08,2.75-.25,1.23-4.36,2.34,0v4.38h4v2.33h-4v7.68a4.79,4.79,0,0,0,.53,2.6,2.19,2.19,0,0,0,2,.78,11.57,11.57,0,0,0,1.79-.15l.1,2.76-.36.06-.63.12c-.2,0-.46.07-.77.1S847.54,213.59,847.26,213.59Z"/>
        <path class="cls-8" d="M852.31,194.93v-3.28h3.85v3.28Zm0,18.44v-16.1h3.84v16.1Z"/>
        <path class="cls-8" d="M864,213.68a5.2,5.2,0,0,1-3.62-1.24,4.52,4.52,0,0,1-1.39-3.57,4.32,4.32,0,0,1,1.64-3.71,10,10,0,0,1,4.95-1.53l1-.12,1.18-.12c.44,0,.79-.07,1-.1v-.85a2.91,2.91,0,0,0-.67-2.13,2.82,2.82,0,0,0-2.05-.67,14.21,14.21,0,0,0-4.85,1.1l-.48-1.33-.49-1.32a15.51,15.51,0,0,1,6.15-1.21q3.25,0,4.74,1.41c1,.94,1.48,2.47,1.48,4.58v10.5h-2.85s-.11-.37-.32-1-.31-.94-.31-1a9,9,0,0,1-2.35,1.72A6.48,6.48,0,0,1,864,213.68Zm1-2.73a4.22,4.22,0,0,0,2.32-.63,3.8,3.8,0,0,0,1.42-1.55v-3.11l-.77.06-.79.06a8.05,8.05,0,0,0-3.41.88,2.36,2.36,0,0,0-1.08,2.17,2,2,0,0,0,.6,1.57A2.43,2.43,0,0,0,865,211Z"/>
        <path class="cls-8" d="M881.85,213.59a8.26,8.26,0,0,1-2.75-.39,3.54,3.54,0,0,1-1.72-1.24,5.16,5.16,0,0,1-.88-2,14,14,0,0,1-.25-2.91V191.34l3.84-.25V207a5.8,5.8,0,0,0,.51,2.94,2.24,2.24,0,0,0,2,.77,13.17,13.17,0,0,0,1.86-.16l.11,2.74-.36.07-.66.13-.8.1C882.42,213.57,882.12,213.59,881.85,213.59Z"/>
      </g>
      <g>
        <path class="cls-8" d="M736.5,410.56V389.1h6.21a18.18,18.18,0,0,1,5,.64,10.9,10.9,0,0,1,3.83,1.94A8.4,8.4,0,0,1,754,395a12.21,12.21,0,0,1,.85,4.73c0,3.47-1,6.13-3.13,8s-5,2.81-8.69,2.81Zm4-3.18h2.84a6.75,6.75,0,0,0,7.51-7.54q0-4-2-5.75t-6-1.8h-2.41Z"/>
        <path class="cls-8" d="M758.3,392.12v-3.28h3.85v3.28Zm0,18.44v-16.1h3.83v16.1Z"/>
        <path class="cls-8" d="M770.61,410.56l-6.42-16.1h4.07c.16.44.65,1.81,1.49,4.1s1.39,3.85,1.66,4.68c.56,1.62,1,2.84,1.2,3.67,0,0,.09-.33.25-1l.48-1.77c.15-.55.24-.88.28-1s.46-1.37,1.34-4,1.41-4.24,1.58-4.69h4l-6.09,16.1Z"/>
        <path class="cls-8" d="M789.4,410.87a8,8,0,0,1-6-2.24,8.5,8.5,0,0,1-2.16-6.17,8.79,8.79,0,0,1,2-6.11,7.08,7.08,0,0,1,5.55-2.28,6.5,6.5,0,0,1,5.16,2.08,8,8,0,0,1,1.84,5.52c0,.16,0,.43,0,.8v.82H785.07a5.07,5.07,0,0,0,1.24,3.5,4.26,4.26,0,0,0,3.24,1.24,10.13,10.13,0,0,0,5.07-1.38l.54,2.72A10.7,10.7,0,0,1,789.4,410.87Zm-4.26-10h7a4.57,4.57,0,0,0-.89-3,3.09,3.09,0,0,0-2.48-1.06,3.38,3.38,0,0,0-2.49,1A4.66,4.66,0,0,0,785.14,400.88Z"/>
        <path class="cls-8" d="M798.82,410.56v-16.1H802l.5,2.46a5.09,5.09,0,0,1,4.59-2.53,7,7,0,0,1,1,.06l-.06,3.2a9.46,9.46,0,0,0-1.21-.08,4.11,4.11,0,0,0-3.17,1.12,4.45,4.45,0,0,0-1.05,3.14v8.73Z"/>
        <path class="cls-8" d="M813.49,417.77l-.22-3.11h2c2.25,0,3.83-.3,4.73-.9s1.34-1.7,1.34-3.3c0-.66,0-1.37-.08-2.13a7.06,7.06,0,0,1-.73.87,5.88,5.88,0,0,1-.86.69,3.94,3.94,0,0,1-1.25.5,7.41,7.41,0,0,1-1.65.17,6.75,6.75,0,0,1-5.25-2.3,8.56,8.56,0,0,1-2.06-5.93,10.17,10.17,0,0,1,.58-3.53,7.13,7.13,0,0,1,1.55-2.61,6.73,6.73,0,0,1,5-2.12,5.4,5.4,0,0,1,4.82,2.35l.27-2H825v15a17.68,17.68,0,0,1-.11,2.16,10,10,0,0,1-.41,1.84,5.76,5.76,0,0,1-.77,1.55,5.69,5.69,0,0,1-1.2,1.2,6.14,6.14,0,0,1-1.69.89,12.39,12.39,0,0,1-2.26.52,21.06,21.06,0,0,1-2.9.19Zm3.85-9.89c2.65,0,4-1.77,4-5.32V402a6.28,6.28,0,0,0-1-3.69,3.35,3.35,0,0,0-2.83-1.32,3.74,3.74,0,0,0-3.19,1.45,6.28,6.28,0,0,0-1.09,3.89,6.88,6.88,0,0,0,1.09,3.95A3.44,3.44,0,0,0,817.34,407.88Z"/>
        <path class="cls-8" d="M828.79,392.12v-3.28h3.85v3.28Zm0,18.44v-16.1h3.83v16.1Z"/>
        <path class="cls-8" d="M836.43,410.56v-16.1h3.09l.43,2a7.61,7.61,0,0,1,5.46-2.43,5.29,5.29,0,0,1,4.21,1.61,7,7,0,0,1,1.4,4.7v10.18h-3.85v-9.71a5.63,5.63,0,0,0-.63-2.92,2.42,2.42,0,0,0-2.21-1,4.3,4.3,0,0,0-2.28.63,3.85,3.85,0,0,0-1.5,1.61,15.81,15.81,0,0,0-.28,3.51v7.84Z"/>
        <path class="cls-8" d="M857.88,417.77l-.22-3.11h2c2.26,0,3.83-.3,4.73-.9a3.68,3.68,0,0,0,1.35-3.3q0-1-.09-2.13a6.28,6.28,0,0,1-.72.87,5.5,5.5,0,0,1-.87.69,4,4,0,0,1-1.24.5,7.54,7.54,0,0,1-1.65.17,6.74,6.74,0,0,1-5.25-2.3,8.56,8.56,0,0,1-2.06-5.93,10.41,10.41,0,0,1,.57-3.53,7.27,7.27,0,0,1,1.55-2.61,6.77,6.77,0,0,1,5-2.12,5.41,5.41,0,0,1,4.82,2.35l.26-2h3.43v15a17.54,17.54,0,0,1-.12,2.16,9.28,9.28,0,0,1-.41,1.84,5.48,5.48,0,0,1-.77,1.55,5.41,5.41,0,0,1-1.19,1.2,6.29,6.29,0,0,1-1.69.89,12.51,12.51,0,0,1-2.27.52,21,21,0,0,1-2.9.19Zm3.85-9.89q4,0,4-5.32V402a6.2,6.2,0,0,0-1-3.69,3.34,3.34,0,0,0-2.83-1.32,3.75,3.75,0,0,0-3.19,1.45,6.35,6.35,0,0,0-1.08,3.89,6.81,6.81,0,0,0,1.09,3.95A3.42,3.42,0,0,0,861.73,407.88Z"/>
      </g>
      <g>
        <path class="cls-8" d="M745.84,613.66a9.69,9.69,0,0,1-7.45-3c-1.84-2-2.76-4.7-2.76-8.17a11,11,0,0,1,2.88-7.95,10,10,0,0,1,7.54-3,11.14,11.14,0,0,1,6.37,1.75l-1.25,3a9.51,9.51,0,0,0-5-1.54,5.7,5.7,0,0,0-4.68,2.13,10.57,10.57,0,0,0-.05,11.48,5.74,5.74,0,0,0,4.73,2,11.69,11.69,0,0,0,5.35-1.35l.53,3.1A11.87,11.87,0,0,1,745.84,613.66Z"/>
        <path class="cls-8" d="M759.17,613.66a5.2,5.2,0,0,1-3.62-1.24,4.5,4.5,0,0,1-1.39-3.57,4.32,4.32,0,0,1,1.64-3.71,10.08,10.08,0,0,1,5-1.53l1-.12c.35,0,.74-.08,1.18-.11l1-.11v-.85a2.91,2.91,0,0,0-.67-2.13,2.82,2.82,0,0,0-2-.66,14.17,14.17,0,0,0-4.85,1.09l-.48-1.33-.49-1.32a15.51,15.51,0,0,1,6.15-1.21q3.25,0,4.74,1.41c1,.94,1.48,2.47,1.48,4.58v10.5h-2.85s-.11-.37-.32-1-.31-.94-.31-1a9,9,0,0,1-2.35,1.72A6.34,6.34,0,0,1,759.17,613.66Zm1-2.73a4.22,4.22,0,0,0,2.32-.63,3.8,3.8,0,0,0,1.42-1.55v-3.1l-.77.05-.79.06a8.05,8.05,0,0,0-3.41.88,2.36,2.36,0,0,0-1.08,2.17,2,2,0,0,0,.6,1.57A2.43,2.43,0,0,0,760.21,610.93Z"/>
        <path class="cls-8" d="M777.87,613.57a8.14,8.14,0,0,1-2.73-.39,3.5,3.5,0,0,1-1.71-1.22,5.2,5.2,0,0,1-.87-2,13,13,0,0,1-.26-2.81v-7.6h-2.64l.15-2.08,2.75-.25,1.23-4.36,2.35,0v4.38h4v2.33h-4v7.68a4.7,4.7,0,0,0,.53,2.6,2.18,2.18,0,0,0,1.94.78,11.47,11.47,0,0,0,1.79-.15l.1,2.76-.36.06-.62.12c-.21,0-.46.07-.77.1S778.14,613.57,777.87,613.57Z"/>
        <path class="cls-8" d="M790.05,613.66a8,8,0,0,1-6-2.23,8.52,8.52,0,0,1-2.16-6.18,8.81,8.81,0,0,1,2-6.11,7.14,7.14,0,0,1,5.55-2.28,6.53,6.53,0,0,1,5.17,2.08,8,8,0,0,1,1.84,5.52c0,.17,0,.43,0,.8s0,.65,0,.83H785.71a5.06,5.06,0,0,0,1.24,3.49,4.3,4.3,0,0,0,3.25,1.24,10.12,10.12,0,0,0,5.06-1.38l.55,2.72A10.72,10.72,0,0,1,790.05,613.66Zm-4.26-10h7a4.52,4.52,0,0,0-.9-3,3.06,3.06,0,0,0-2.47-1,3.39,3.39,0,0,0-2.5,1A4.6,4.6,0,0,0,785.79,603.67Z"/>
        <path class="cls-8" d="M802.65,620.56l-.22-3.11h2c2.25,0,3.83-.3,4.73-.9a3.68,3.68,0,0,0,1.35-3.3c0-.66,0-1.36-.09-2.13a6.42,6.42,0,0,1-.73.88,5.38,5.38,0,0,1-.86.68,4,4,0,0,1-1.24.5,7,7,0,0,1-1.65.17,6.74,6.74,0,0,1-5.25-2.3,8.52,8.52,0,0,1-2.06-5.93,10.46,10.46,0,0,1,.57-3.53A7.36,7.36,0,0,1,800.7,599a6.83,6.83,0,0,1,5-2.12,5.41,5.41,0,0,1,4.82,2.36l.26-2h3.43v15a17.54,17.54,0,0,1-.12,2.16,9.28,9.28,0,0,1-.41,1.84,5.76,5.76,0,0,1-.77,1.55,5.63,5.63,0,0,1-1.19,1.2,6.44,6.44,0,0,1-1.69.89,11.72,11.72,0,0,1-2.27.52,19.51,19.51,0,0,1-2.9.19Zm3.85-9.89q4,0,4-5.32v-.55a6.29,6.29,0,0,0-1-3.7,3.35,3.35,0,0,0-2.83-1.31,3.75,3.75,0,0,0-3.19,1.44,6.35,6.35,0,0,0-1.08,3.89,6.81,6.81,0,0,0,1.09,4A3.41,3.41,0,0,0,806.5,610.67Z"/>
        <path class="cls-8" d="M824.81,613.66a7.11,7.11,0,0,1-5.62-2.32,10.16,10.16,0,0,1,0-12.24,7.46,7.46,0,0,1,5.79-2.24,7.15,7.15,0,0,1,5.64,2.29,10.11,10.11,0,0,1,0,12.23A7.42,7.42,0,0,1,824.81,613.66Zm.11-2.92a3.33,3.33,0,0,0,2.93-1.42,9,9,0,0,0,0-8.16,3.8,3.8,0,0,0-5.9,0,7.1,7.1,0,0,0-1,4.09,7,7,0,0,0,1,4.06A3.37,3.37,0,0,0,824.92,610.74Z"/>
        <path class="cls-8" d="M835.67,613.35v-16.1h3.22l.5,2.46a5.07,5.07,0,0,1,4.58-2.53,7.12,7.12,0,0,1,1,.06l-.06,3.21a8,8,0,0,0-1.22-.09,4.1,4.1,0,0,0-3.17,1.13,4.4,4.4,0,0,0-1,3.13v8.73Z"/>
        <path class="cls-8" d="M847.23,594.91v-3.28h3.85v3.28Zm0,18.44v-16.1h3.84v16.1Z"/>
        <path class="cls-8" d="M861.93,613.66a7.48,7.48,0,0,1-5.75-2.2,8.8,8.8,0,0,1-2.06-6.28,8.34,8.34,0,0,1,2.16-6.14,7.63,7.63,0,0,1,5.69-2.18,8.89,8.89,0,0,1,4.78,1.21l-.91,2.74a8.15,8.15,0,0,0-3.71-1,3.75,3.75,0,0,0-3.07,1.39,6.4,6.4,0,0,0-1.12,4.06,6.48,6.48,0,0,0,1.11,4.1,3.75,3.75,0,0,0,3.13,1.41,7.43,7.43,0,0,0,4.05-1.25l.37,2.92a7.12,7.12,0,0,1-2.1,1A10.17,10.17,0,0,1,861.93,613.66Z"/>
        <path class="cls-8" d="M873.59,613.66a5.2,5.2,0,0,1-3.62-1.24,4.54,4.54,0,0,1-1.39-3.57,4.3,4.3,0,0,1,1.65-3.71,10,10,0,0,1,4.95-1.53l1-.12c.35,0,.74-.08,1.18-.11l1-.11v-.85a2.91,2.91,0,0,0-.67-2.13,2.82,2.82,0,0,0-2.05-.66,14.17,14.17,0,0,0-4.85,1.09l-.48-1.33c-.31-.86-.48-1.3-.49-1.32a15.53,15.53,0,0,1,6.16-1.21q3.24,0,4.73,1.41c1,.94,1.48,2.47,1.48,4.58v10.5h-2.84s-.12-.37-.33-1-.3-.94-.3-1a9.08,9.08,0,0,1-2.36,1.72A6.34,6.34,0,0,1,873.59,613.66Zm1-2.73a4.25,4.25,0,0,0,2.33-.63,3.71,3.71,0,0,0,1.41-1.55v-3.1l-.77.05-.78.06a8.1,8.1,0,0,0-3.42.88,2.36,2.36,0,0,0-1.08,2.17,2,2,0,0,0,.6,1.57A2.43,2.43,0,0,0,874.63,610.93Z"/>
        <path class="cls-8" d="M891.46,613.57a8.3,8.3,0,0,1-2.75-.39,3.59,3.59,0,0,1-1.72-1.24,5.16,5.16,0,0,1-.88-2,14.72,14.72,0,0,1-.25-2.91V591.32l3.84-.25v15.86a5.8,5.8,0,0,0,.51,2.94,2.26,2.26,0,0,0,2,.77,13.41,13.41,0,0,0,1.86-.16l.1,2.74-.36.07-.66.13-.8.1C892,613.55,891.73,613.57,891.46,613.57Z"/>
      </g>
      <rect class="cls-7" x="585.73" y="344.79" width="110.41" height="110.41"/>
      <rect class="cls-9" x="585.73" y="544.31" width="110.41" height="110.41"/>
    </g>
  </g>
</svg>
