<svg viewBox="0 0 1500 1000" xmlns="http://www.w3.org/2000/svg"><g stroke="#000" stroke-linecap="round" stroke-linejoin="round" stroke-width="6"><g fill="none"><path d="m229.51 168.23v679.65h1105.42"/><path d="m227.21 230.88h-19.56"/><path d="m227.21 305.88h-19.56"/><path d="m227.21 377.88h-19.56"/><path d="m227.21 451.88h-19.56"/><path d="m227.21 516.88h-19.56"/><path d="m227.21 590.88h-19.56"/><path d="m227.21 656.88h-19.56"/><path d="m227.21 733.88h-19.56"/><path d="m227.21 811.88h-19.56"/><path d="m273.22 848.88v17"/><path d="m354.89 848.88v17"/><path d="m436.56 848.88v17"/><path d="m520.53 848.88v17"/><path d="m602.2 848.88v17"/><path d="m683.87 848.88v17"/><path d="m763.24 848.88v17"/><path d="m846.06 848.88v17"/><path d="m932.33 848.88v17"/><path d="m1008.25 848.88v17"/><path d="m1081.87 848.88v17"/><path d="m1169.29 848.88v17"/><path d="m1245.21 848.88v17"/></g><path d="m680.3 256.86h81.06v564.84h-81.06z" fill="#1af3c0"/><path d="m761.53 326.07h81.06v495.63h-81.06z" fill="#1af3c0"/><path d="m842.75 419.83h81.06v401.86h-81.06z" fill="#1af3c0"/><path d="m924.13 540.39h81.06v281.3h-81.06z" fill="#1af3c0"/><path d="m1005.69 669.41h81.06v152.28h-81.06z" fill="#1af3c0"/><path d="m1086.87 718.45h81.06v103.25h-81.06z" fill="#1af3c0"/><path d="m517.85 426.53h81.06v395.16h-81.06z" fill="#1af3c0"/><path d="m436.46 525.88h81.06v294.7h-81.06z" fill="#1af3c0"/><path d="m358.89 682.18h77.27v139.51h-77.27z" fill="#1af3c0"/><path d="m277.4 739.72h81.06v81.98h-81.06z" fill="#1af3c0"/><path d="m1167.87 749.98h81.06v71.71h-81.06z" fill="#1af3c0"/><path d="m599.08 335.95h81.06v485.74h-81.06z" fill="#1af3c0"/><path d="m203.75 770.88c67.45-26.21 127.84-63.62 176.43-110.54 62.19-60.07 113.09-127.34 150.65-199.73l70.38-135.7c54.41-104.9 185.23-105.79 240.68-1.63l89.36 167.86q9.39 17.64 20.21 34.68c77.33 121.91 217.21 209.73 380.8 245.29" fill="none"/><path d="m203.75 165.32h49.95" fill="none"/><path d="m1337.19 825.18v49.96" fill="none"/></g></svg>